<?xml version="1.0" encoding="UTF-8"?>
<svg version="1.1" xmlns="http://www.w3.org/2000/svg" width="2117" height="1864">
<path d="M0 0 C2.5418579 -0.00258763 5.08371539 -0.00560189 7.62557232 -0.0090034 C13.85121576 -0.01619025 20.07684686 -0.0187737 26.30249395 -0.01933246 C33.76759969 -0.02025139 41.23269765 -0.0269343 48.69780001 -0.03367928 C66.7293301 -0.04968399 84.76085928 -0.05563539 102.79239519 -0.06042803 C111.32891304 -0.06276862 119.86543022 -0.06637168 128.40194754 -0.07012341 C157.64865512 -0.08295141 186.89536234 -0.09367327 216.14207268 -0.09712601 C217.97536407 -0.09734764 219.80865547 -0.09756942 221.64194686 -0.09779136 C223.47952271 -0.098012 225.31709856 -0.09823248 227.15467441 -0.09845281 C230.84083804 -0.09889535 234.52700166 -0.09934246 238.21316528 -0.09979248 C239.12710854 -0.09990187 240.04105179 -0.10001126 240.9826903 -0.10012397 C270.62707136 -0.10375579 300.27142798 -0.11968443 329.91579968 -0.14298284 C361.2919151 -0.16759706 392.66801654 -0.18129949 424.04414189 -0.18249393 C427.49023446 -0.18266537 430.93632702 -0.18288079 434.38241959 -0.18312836 C435.23088266 -0.18318413 436.07934574 -0.18323989 436.95351982 -0.18329735 C450.58416984 -0.1844461 464.21479467 -0.19545251 477.8454362 -0.21001541 C491.55066222 -0.22440465 505.25585607 -0.22760361 518.96108757 -0.21957543 C527.09360048 -0.2151314 535.2260093 -0.21893064 543.35850846 -0.23481394 C549.44369716 -0.24576378 555.5287681 -0.24088515 561.61396135 -0.23004207 C564.06600928 -0.22808857 566.51806774 -0.23114733 568.97010086 -0.23988643 C586.17384476 -0.29729188 602.89872106 -0.09485283 618.81130981 7.14044189 C621.1815226 8.06941667 623.55676031 8.98565078 625.93630981 9.89044189 C627.05263794 10.31841064 628.16896606 10.74637939 629.31912231 11.18731689 C630.14154419 11.50184814 630.96396606 11.81637939 631.81130981 12.14044189 C631.81130981 12.80044189 631.81130981 13.46044189 631.81130981 14.14044189 C632.95599731 14.54262939 632.95599731 14.54262939 634.12380981 14.95294189 C636.70119599 16.09178695 638.08085846 16.9546086 639.81130981 19.14044189 C639.81130981 19.80044189 639.81130981 20.46044189 639.81130981 21.14044189 C640.47130981 21.14044189 641.13130981 21.14044189 641.81130981 21.14044189 C641.81130981 21.80044189 641.81130981 22.46044189 641.81130981 23.14044189 C642.47130981 23.14044189 643.13130981 23.14044189 643.81130981 23.14044189 C645.53787231 25.47637939 645.53787231 25.47637939 647.43630981 28.51544189 C648.06795044 29.51317627 648.69959106 30.51091064 649.35037231 31.53887939 C650.81130981 34.14044189 650.81130981 34.14044189 650.81130981 36.14044189 C651.47130981 36.14044189 652.13130981 36.14044189 652.81130981 36.14044189 C653.61851299 38.05061735 654.40604821 39.96910407 655.18630981 41.89044189 C655.84759888 43.49145752 655.84759888 43.49145752 656.52224731 45.12481689 C660.90521123 57.78437565 660.08273682 71.24449817 660.0383606 84.44219971 C660.0377958 86.79861954 660.03811438 89.15503972 660.03924561 91.51145935 C660.03981743 97.88041149 660.02809065 104.24928769 660.01409769 110.61822224 C660.00283365 116.60834845 660.00084833 122.59847488 659.99879394 128.58860967 C659.99442811 140.44493126 659.98114934 152.30122516 659.96218872 164.15753174 C659.94380103 175.66762149 659.92965871 187.17770369 659.9211731 198.68780518 C659.92064765 199.39854444 659.9201222 200.1092837 659.91958083 200.84156051 C659.91697056 204.40750588 659.91444319 207.9734513 659.91195703 211.53939676 C659.89125918 241.07309633 659.85591433 270.60676862 659.81130981 300.14044189 C660.80803045 300.03557468 660.80803045 300.03557468 661.82488686 299.92858893 C670.95553168 299.05979835 680.04200235 298.97166231 689.20289612 298.94425964 C690.94793542 298.93554778 692.6929727 298.92642211 694.43800789 298.91692168 C699.20978038 298.89213779 703.9815605 298.87321441 708.75336301 298.85529029 C713.91465748 298.83486774 719.07592493 298.80896817 724.23719788 298.7837677 C734.36405537 298.73518805 744.4909286 298.69165776 754.61781596 298.64982455 C766.50857267 298.60051458 778.39930494 298.54618635 790.29003883 298.49169344 C811.62743521 298.39408132 832.96484905 298.30102538 854.30227661 298.21051025 C874.77397207 298.12366373 895.24565037 298.03369112 915.71731567 297.94000244 C916.96536133 297.93429117 918.21340699 297.92857991 919.49927222 297.92269557 C920.74560292 297.91699188 921.99193362 297.91128819 923.27603191 297.90541166 C946.80240584 297.79777141 970.32879268 297.69321654 993.85518644 297.5900091 C1000.89116897 297.55909052 1007.92714896 297.52765857 1014.96312713 297.49576404 C1040.0827086 297.3819644 1065.20226866 297.27864087 1090.32199985 297.20391351 C1101.48074076 297.1702921 1112.63939057 297.1292256 1123.79805374 297.07539749 C1134.3073093 297.02470846 1144.81654234 296.98508157 1155.32588621 296.95803135 C1160.83965392 296.94347577 1166.35328595 296.92400484 1171.86697662 296.89099109 C1215.09278548 296.63856446 1215.09278548 296.63856446 1234.81130981 300.14044189 C1234.81130981 300.80044189 1234.81130981 301.46044189 1234.81130981 302.14044189 C1235.9804895 302.26548096 1237.14966919 302.39052002 1238.35427856 302.51934814 C1249.36938918 303.9146761 1259.30670023 308.0928492 1269.06130981 313.20294189 C1269.8712439 313.62631836 1270.68117798 314.04969482 1271.51565552 314.48590088 C1275.55457654 316.67409417 1278.64296582 318.77576889 1281.81130981 322.14044189 C1283.22283325 323.08016846 1283.22283325 323.08016846 1284.66287231 324.03887939 C1288.1392845 326.35936297 1291.12345945 328.93703192 1294.18630981 331.76544189 C1294.73158325 332.25528564 1295.27685669 332.74512939 1295.83865356 333.24981689 C1297.20453798 334.50273342 1298.51335373 335.81728278 1299.81130981 337.14044189 C1299.81130981 337.80044189 1299.81130981 338.46044189 1299.81130981 339.14044189 C1300.80130981 339.47044189 1301.79130981 339.80044189 1302.81130981 340.14044189 C1304.42459106 342.10919189 1304.42459106 342.10919189 1306.12380981 344.64044189 C1306.73353638 345.54278564 1307.34326294 346.44512939 1307.97146606 347.37481689 C1308.5786145 348.28747314 1309.18576294 349.20012939 1309.81130981 350.14044189 C1310.36689575 350.94997314 1310.92248169 351.75950439 1311.49490356 352.59356689 C1318.81130981 363.32186334 1318.81130981 363.32186334 1318.81130981 367.14044189 C1319.47130981 367.14044189 1320.13130981 367.14044189 1320.81130981 367.14044189 C1322.08536307 370.45171218 1323.35494797 373.76467918 1324.62380981 377.07794189 C1325.15844849 378.467229 1325.15844849 378.467229 1325.70388794 379.88458252 C1329.1618393 388.92601497 1332.11537868 397.68311394 1333.93630981 407.20294189 C1334.105177 408.04921143 1334.27404419 408.89548096 1334.44802856 409.76739502 C1335.84123846 416.88154162 1336.96475451 423.86486607 1336.87380981 431.14044189 C1336.86478638 432.08919189 1336.85576294 433.03794189 1336.84646606 434.01544189 C1336.8348645 434.71669189 1336.82326294 435.41794189 1336.81130981 436.14044189 C1337.47130981 436.14044189 1338.13130981 436.14044189 1338.81130981 436.14044189 C1338.81130981 697.17044189 1338.81130981 958.20044189 1338.81130981 1227.14044189 C1338.15130981 1227.14044189 1337.49130981 1227.14044189 1336.81130981 1227.14044189 C1336.83233765 1227.7361499 1336.85336548 1228.33185791 1336.87503052 1228.94561768 C1337.00434755 1235.50829804 1336.25273097 1241.58429491 1334.99880981 1248.01544189 C1334.81866333 1248.97273193 1334.63851685 1249.93002197 1334.45291138 1250.9163208 C1333.14871334 1257.7246962 1331.67169094 1264.4599824 1329.81130981 1271.14044189 C1329.15130981 1271.14044189 1328.49130981 1271.14044189 1327.81130981 1271.14044189 C1327.64115356 1271.74630127 1327.47099731 1272.35216064 1327.29568481 1272.97637939 C1325.4956404 1279.19993722 1323.31512549 1285.1668715 1320.81130981 1291.14044189 C1320.15130981 1291.14044189 1319.49130981 1291.14044189 1318.81130981 1291.14044189 C1318.53931763 1291.85200439 1318.26732544 1292.56356689 1317.98709106 1293.29669189 C1316.79683365 1296.17545402 1315.46234743 1298.89099919 1313.99880981 1301.64044189 C1313.5179895 1302.55825439 1313.03716919 1303.47606689 1312.54177856 1304.42169189 C1308.70822797 1310.4446066 1302.80198789 1314.90163014 1297.53005981 1319.64044189 C1294.88305001 1322.07447389 1292.34962763 1324.59398845 1289.81130981 1327.14044189 C1288.32490561 1328.53012802 1286.82539334 1329.90596549 1285.31130981 1331.26544189 C1284.57912231 1331.92802002 1283.84693481 1332.59059814 1283.09255981 1333.27325439 C1279.00439873 1336.61938624 1276.49215092 1338.31635786 1271.13748169 1338.21905518 C1270.32726563 1338.20770538 1269.51704956 1338.19635559 1268.68228149 1338.18466187 C1267.75615051 1338.16277298 1267.75615051 1338.16277298 1266.81130981 1338.14044189 C1266.82272758 1338.70490115 1266.83414536 1339.26936041 1266.84590912 1339.85092449 C1267.50208923 1372.60948687 1267.91685532 1405.36423612 1268.09255981 1438.12872314 C1268.09961594 1439.44158952 1268.09961594 1439.44158952 1268.10681462 1440.78097844 C1268.16557599 1451.80403022 1268.218787 1462.8271063 1268.27042311 1473.85019344 C1268.34908807 1490.57457987 1268.43827259 1507.29891545 1268.52600288 1524.0232563 C1268.54697376 1528.02322876 1268.56777302 1532.02320206 1268.58842278 1536.02317619 C1268.73221125 1563.85152227 1268.89890736 1591.6796124 1269.09646606 1619.50762939 C1269.10234033 1620.33653521 1269.1082146 1621.16544103 1269.11426687 1622.01946521 C1269.22546346 1637.69446633 1269.3401817 1653.36944069 1269.45777965 1669.04439503 C1269.85066567 1721.4343344 1269.85066567 1721.4343344 1269.86209106 1739.24591064 C1269.86358658 1740.42932541 1269.86508209 1741.61274017 1269.86662292 1742.83201599 C1269.84817582 1761.02859283 1269.75159143 1779.49657898 1264.81130981 1797.14044189 C1264.15130981 1797.14044189 1263.49130981 1797.14044189 1262.81130981 1797.14044189 C1262.69658325 1797.86231689 1262.58185669 1798.58419189 1262.46365356 1799.32794189 C1258.50749521 1816.38443301 1240.46556062 1834.74782012 1226.19412231 1843.80059814 C1219.47678909 1847.91861547 1219.47678909 1847.91861547 1215.81130981 1849.14044189 C1215.41041138 1849.59419189 1215.00951294 1850.04794189 1214.59646606 1850.51544189 C1211.89756507 1852.97220954 1208.63226047 1853.93184185 1205.24880981 1855.14044189 C1204.25010864 1855.51169189 1204.25010864 1855.51169189 1203.23123169 1855.89044189 C1201.10052364 1856.6704151 1198.9589874 1857.4084762 1196.81130981 1858.14044189 C1196.08272751 1858.39175715 1195.3541452 1858.64307241 1194.60348464 1858.90200328 C1188.15815074 1860.99023538 1181.99161295 1861.85144126 1175.24752098 1862.31158483 C1174.16009557 1862.39132753 1173.07267016 1862.47107022 1171.95229246 1862.55322937 C1160.24570987 1863.34777093 1148.5604549 1863.42265632 1136.83193111 1863.40215492 C1134.41025546 1863.40535162 1131.98858083 1863.40941855 1129.56690791 1863.4142642 C1124.33206305 1863.42277052 1119.09725289 1863.42524578 1113.86240356 1863.42216308 C1106.02174721 1863.41758653 1098.18112925 1863.4246893 1090.34047848 1863.43389478 C1076.96141833 1863.4492726 1063.58236879 1863.4553394 1050.20330048 1863.45622826 C1036.65033252 1863.45716731 1023.09737659 1863.46248414 1009.54441261 1863.4730587 C1008.6857797 1863.47372603 1007.82714678 1863.47439335 1006.94249468 1863.4750809 C1002.56278845 1863.47850451 998.18308228 1863.48199811 993.80337613 1863.485516 C962.10091373 1863.51083385 930.39845241 1863.52652642 898.69598198 1863.53709793 C867.12432948 1863.54765291 835.55268318 1863.56232685 803.98103523 1863.58237839 C802.99550451 1863.58300237 802.00997379 1863.58362635 800.9945785 1863.58426925 C791.98712684 1863.58997371 782.97967522 1863.5957258 773.97222364 1863.60153577 C751.56009383 1863.6159901 729.14796365 1863.6298045 706.73583317 1863.64317894 C705.71472611 1863.64378876 704.69361904 1863.64439858 703.64156934 1863.64502688 C653.93765377 1863.67465342 604.23373524 1863.69688835 554.52981567 1863.71856689 C487.20143863 1863.74794534 419.87306592 1863.78143571 352.54469416 1863.82119072 C349.38129674 1863.82305855 346.21789932 1863.82492421 343.0545019 1863.8267894 C325.1955746 1863.83732193 307.33664733 1863.84789494 289.47772009 1863.85852221 C189.54400932 1863.91798675 89.61029628 1863.97433718 -35.71083007 1864.03787493 C-38.51298219 1864.03927499 -41.31513432 1864.04067888 -44.11728644 1864.04208327 C-84.78253477 1864.06244082 -125.44778276 1864.08100395 -166.11303428 1864.09365948 C-169.60155917 1864.09474781 -173.09008405 1864.09585208 -176.57860894 1864.09695666 C-180.91977174 1864.09833091 -185.26093453 1864.09969868 -189.60209733 1864.10106671 C-190.45904724 1864.10133697 -191.31599715 1864.10160724 -192.19891524 1864.10188569 C-200.79871599 1864.10459592 -209.39851674 1864.10728691 -217.99831753 1864.10983898 C-260.38245643 1864.12244565 -302.76655958 1864.14677943 -345.15067949 1864.18930591 C-348.66626456 1864.19282675 -352.18184963 1864.19633712 -355.69743472 1864.19983685 C-356.99909964 1864.20113403 -356.99909964 1864.20113403 -358.32706082 1864.20245741 C-371.23446674 1864.21524841 -384.14187302 1864.22595407 -397.04928225 1864.23477829 C-397.88336258 1864.2353501 -398.7174429 1864.23592191 -399.57679839 1864.23651105 C-407.88141419 1864.24216945 -416.18603013 1864.24753146 -424.49064637 1864.25249685 C-428.55697761 1864.25494121 -432.62330879 1864.25747858 -436.68963993 1864.26007915 C-437.4873859 1864.26058859 -438.28513188 1864.26109803 -439.10705197 1864.26162291 C-451.69149289 1864.26987241 -464.2759157 1864.28502136 -476.86034582 1864.30318195 C-489.28104183 1864.32098344 -501.70172707 1864.33157116 -514.12243558 1864.33479774 C-520.7748961 1864.33673486 -527.42732 1864.34206512 -534.07976882 1864.35641477 C-598.11356934 1864.48933373 -598.11356934 1864.48933373 -624.18869019 1860.14044189 C-624.18869019 1859.48044189 -624.18869019 1858.82044189 -624.18869019 1858.14044189 C-626.10488159 1857.98768799 -626.10488159 1857.98768799 -628.05978394 1857.83184814 C-633.36750874 1857.24210094 -638.20213315 1855.76618362 -643.25119019 1854.07794189 C-644.11679565 1853.79628174 -644.98240112 1853.51462158 -645.87423706 1853.22442627 C-647.98171737 1852.53745755 -650.08627969 1851.84274124 -652.18869019 1851.14044189 C-652.18869019 1850.48044189 -652.18869019 1849.82044189 -652.18869019 1849.14044189 C-653.04591675 1849.03989502 -653.90314331 1848.93934814 -654.78634644 1848.83575439 C-665.97327765 1846.54956179 -674.48939938 1839.20763707 -681.12619019 1830.32794189 C-683.18869019 1827.14044189 -683.18869019 1827.14044189 -683.18869019 1825.14044189 C-683.84869019 1825.14044189 -684.50869019 1825.14044189 -685.18869019 1825.14044189 C-686.36045536 1823.01811211 -687.52623803 1820.89286398 -688.68869019 1818.76544189 C-689.02255737 1818.16216064 -689.35642456 1817.55887939 -689.70040894 1816.93731689 C-692.18869019 1812.36700439 -692.18869019 1812.36700439 -692.18869019 1810.14044189 C-692.84869019 1810.14044189 -693.50869019 1810.14044189 -694.18869019 1810.14044189 C-695.36603978 1807.06108223 -696.52866909 1803.97636673 -697.68869019 1800.89044189 C-698.02255737 1800.01774658 -698.35642456 1799.14505127 -698.70040894 1798.24591064 C-699.01622925 1797.40157471 -699.33204956 1796.55723877 -699.65744019 1795.68731689 C-699.9507019 1794.91226807 -700.24396362 1794.13721924 -700.54611206 1793.33868408 C-701.18869019 1791.14044189 -701.18869019 1791.14044189 -701.18869019 1787.14044189 C-701.84869019 1787.14044189 -702.50869019 1787.14044189 -703.18869019 1787.14044189 C-707.7307987 1766.37021753 -709.33692792 1745.92881963 -709.26290894 1724.67950439 C-709.26011222 1723.12404906 -709.25742597 1721.56859352 -709.25483704 1720.01313782 C-709.21077385 1700.39910092 -709.02176833 1680.78550294 -708.8513155 1661.17225838 C-708.71992754 1646.04972819 -708.59668246 1630.92713716 -708.47775269 1615.80450439 C-708.47190084 1615.06091651 -708.466049 1614.31732863 -708.46001983 1613.55120778 C-708.1427046 1573.13059673 -707.90434607 1532.70950611 -707.67630202 1492.28830665 C-707.63796478 1485.50145501 -707.59872475 1478.71460902 -707.55908203 1471.92776489 C-707.29921673 1427.3315128 -707.11162882 1382.73755514 -707.18869019 1338.14044189 C-707.80606552 1337.8690036 -708.42344086 1337.59756531 -709.05952454 1337.31790161 C-709.86970535 1336.96011627 -710.67988617 1336.60233093 -711.51461792 1336.23370361 C-712.31761826 1335.87976532 -713.12061859 1335.52582703 -713.94795227 1335.16116333 C-726.38354032 1329.49639049 -739.00118546 1320.14240137 -747.18869019 1309.14044189 C-747.18869019 1308.48044189 -747.18869019 1307.82044189 -747.18869019 1307.14044189 C-748.17869019 1306.81044189 -749.16869019 1306.48044189 -750.18869019 1306.14044189 C-752.01290894 1303.70684814 -752.01290894 1303.70684814 -753.87619019 1300.70294189 C-754.49880737 1299.71423096 -755.12142456 1298.72552002 -755.76290894 1297.70684814 C-757.18869019 1295.14044189 -757.18869019 1295.14044189 -757.18869019 1293.14044189 C-757.84869019 1293.14044189 -758.50869019 1293.14044189 -759.18869019 1293.14044189 C-760.36023312 1290.85115137 -761.52607092 1288.55925828 -762.68869019 1286.26544189 C-763.02255737 1285.61446533 -763.35642456 1284.96348877 -763.70040894 1284.29278564 C-766.18869019 1279.36700439 -766.18869019 1279.36700439 -766.18869019 1277.14044189 C-766.84869019 1277.14044189 -767.50869019 1277.14044189 -768.18869019 1277.14044189 C-775.65120494 1255.77828133 -775.65120494 1255.77828133 -775.18869019 1245.14044189 C-775.84869019 1245.14044189 -776.50869019 1245.14044189 -777.18869019 1245.14044189 C-778.20709929 1237.58545999 -778.3287037 1230.17136895 -778.31453133 1222.55422401 C-778.31557573 1221.18101518 -778.31705792 1219.80780663 -778.31893569 1218.43459868 C-778.32282437 1214.66370917 -778.32050257 1210.89284531 -778.31715774 1207.12195622 C-778.31461933 1203.01844769 -778.31788164 1198.91494307 -778.32040107 1194.8114351 C-778.32401284 1187.62026381 -778.32390313 1180.42910003 -778.32135391 1173.23792839 C-778.3175734 1162.5443382 -778.31950416 1151.85075435 -778.32256222 1141.1571642 C-778.32783049 1122.05850192 -778.32737053 1102.95984298 -778.32448331 1083.86118038 C-778.32196885 1067.14648089 -778.32131053 1050.43178262 -778.32250595 1033.71708298 C-778.32258234 1032.60883424 -778.32265872 1031.50058549 -778.32273742 1030.35875346 C-778.32304875 1025.86011414 -778.32336715 1021.36147482 -778.32369718 1016.8628355 C-778.3267571 974.65032171 -778.32398135 932.43781005 -778.31860029 890.22529658 C-778.31385524 852.71686732 -778.31427866 815.20844144 -778.31906128 777.70001221 C-778.32441544 735.56826741 -778.32653944 693.4365245 -778.32344902 651.30477941 C-778.32312829 646.81366372 -778.32281545 642.32254803 -778.32250595 637.83143234 C-778.32242687 636.72558896 -778.3223478 635.61974559 -778.32226632 634.4803918 C-778.32112859 617.77703381 -778.32245962 601.07367717 -778.3249855 584.37031937 C-778.32784329 565.37732329 -778.3271331 546.38433109 -778.32170476 527.3913355 C-778.31876656 516.76013666 -778.31857957 506.1289462 -778.32235093 495.49774757 C-778.324592 488.3975673 -778.32320011 481.29739374 -778.31884617 474.19721447 C-778.31646609 470.15109147 -778.3156568 466.10498512 -778.31925215 462.05886264 C-778.32249246 458.37472014 -778.32109558 454.69060899 -778.31607149 451.00646876 C-778.31459649 449.06415254 -778.31799842 447.12183447 -778.32162577 445.17952108 C-778.306508 438.11083793 -777.9731103 431.16665482 -777.18869019 424.14044189 C-776.52869019 424.14044189 -775.86869019 424.14044189 -775.18869019 424.14044189 C-775.23767456 423.06923096 -775.28665894 421.99802002 -775.33712769 420.89434814 C-775.33459317 415.13719752 -774.04213311 409.67839937 -772.81369019 404.07794189 C-772.59197144 403.02800049 -772.37025269 401.97805908 -772.14181519 400.89630127 C-771.00436297 395.58038489 -769.76779518 390.34263358 -768.18869019 385.14044189 C-767.52869019 385.14044189 -766.86869019 385.14044189 -766.18869019 385.14044189 C-766.02433472 383.86620361 -766.02433472 383.86620361 -765.85665894 382.56622314 C-764.1423214 373.77397741 -759.74015759 365.36934609 -754.57931519 358.11700439 C-752.5566104 355.24203635 -750.88923991 352.21451254 -749.18869019 349.14044189 C-748.52869019 349.14044189 -747.86869019 349.14044189 -747.18869019 349.14044189 C-746.97083862 348.44177002 -746.75298706 347.74309814 -746.52853394 347.02325439 C-744.85705305 343.42689028 -742.45955484 340.84739555 -739.75119019 338.01544189 C-739.2607019 337.49079346 -738.77021362 336.96614502 -738.26486206 336.42559814 C-736.91617769 334.98772952 -735.55297617 333.56351584 -734.18869019 332.14044189 C-733.62021362 331.52427002 -733.05173706 330.90809814 -732.46603394 330.27325439 C-731.18869019 329.14044189 -731.18869019 329.14044189 -729.18869019 329.14044189 C-729.18869019 328.48044189 -729.18869019 327.82044189 -729.18869019 327.14044189 C-727.40839299 325.79631751 -725.56135271 324.5400737 -723.68869019 323.32794189 C-722.59298706 322.61637939 -721.49728394 321.90481689 -720.36837769 321.17169189 C-719.31908081 320.50137939 -718.26978394 319.83106689 -717.18869019 319.14044189 C-716.40751831 318.63512939 -715.62634644 318.12981689 -714.82150269 317.60919189 C-704.68449811 311.14044189 -704.68449811 311.14044189 -700.18869019 311.14044189 C-700.18869019 310.48044189 -700.18869019 309.82044189 -700.18869019 309.14044189 C-697.21415607 308.14681417 -694.23338203 307.17332003 -691.25119019 306.20294189 C-690.4203894 305.92514893 -689.58958862 305.64735596 -688.73361206 305.36114502 C-683.18155001 303.56806662 -678.00710431 302.60427107 -672.18869019 302.14044189 C-672.18869019 301.48044189 -672.18869019 300.82044189 -672.18869019 300.14044189 C-669.98120651 299.82199537 -667.77263164 299.51111397 -665.56369019 299.20294189 C-664.33392456 299.02891846 -663.10415894 298.85489502 -661.83712769 298.67559814 C-649.68954072 297.17810698 -637.59757799 296.99826016 -625.38131714 297.02864075 C-623.62942961 297.02933243 -621.87754188 297.02961344 -620.12565422 297.02952135 C-615.37184868 297.03068661 -610.61807459 297.03840923 -605.86427855 297.04756634 C-601.79438001 297.05466072 -597.72448119 297.05809407 -593.65457827 297.0616576 C-546.90504935 297.10399226 -500.15584802 297.30167576 -453.40682602 297.51136851 C-446.26027396 297.54338838 -439.11371888 297.57469387 -431.96716309 297.60586739 C-408.22297929 297.70953388 -384.47880436 297.81498383 -360.73463857 297.92269557 C-358.84597615 297.93126247 -358.84597615 297.93126247 -356.91915894 297.94000244 C-355.02811398 297.94858082 -355.02811398 297.94858082 -353.09886611 297.9573325 C-332.44581841 298.0509016 -311.79275353 298.13985713 -291.13967741 298.22689991 C-269.74329569 298.31713296 -248.34693188 298.41089128 -226.95058155 298.50828749 C-215.01094711 298.56256116 -203.07131044 298.61538142 -191.13165283 298.66431999 C-181.0346786 298.70572722 -170.93772528 298.75038175 -160.84078443 298.7992801 C-155.7025887 298.82406968 -150.56439813 298.84734657 -145.42617798 298.8664856 C-140.72171926 298.88404639 -136.01730194 298.90600777 -131.3128792 298.9314074 C-129.61691468 298.93980339 -127.9209414 298.94661966 -126.22496355 298.95164906 C-117.1708224 298.9794346 -108.20374427 299.18968207 -99.18869019 300.14044189 C-99.51869019 299.15044189 -99.84869019 298.16044189 -100.18869019 297.14044189 C-100.2880392 295.77258284 -100.33473177 294.40050667 -100.34690857 293.02909851 C-100.35669802 292.18869019 -100.36648746 291.34828186 -100.37657356 290.48240662 C-100.38520581 289.09774956 -100.38520581 289.09774956 -100.39401245 287.68511963 C-100.40390638 286.70485809 -100.41380032 285.72459656 -100.42399406 284.71463013 C-100.45588482 281.41779032 -100.48058339 278.12093801 -100.50509644 274.82403564 C-100.52586546 272.47003404 -100.54695547 270.11603524 -100.56834412 267.76203918 C-100.62473814 261.36713242 -100.67404731 254.97218952 -100.72132111 248.57720947 C-100.75110821 244.58891766 -100.78252025 240.60064163 -100.81436157 236.61236572 C-101.12845619 197.04406813 -101.29458372 157.47622723 -101.31162643 117.9066658 C-101.31369042 114.14001506 -101.31744928 110.37336902 -101.3215332 106.60671997 C-101.32735996 100.6933757 -101.32756298 94.7800578 -101.32307243 88.86671257 C-101.3220388 86.70116123 -101.32258415 84.53560848 -101.32483101 82.37005806 C-101.32737688 79.41719038 -101.32360224 76.46439775 -101.31808472 73.51153564 C-101.32112531 72.23034426 -101.32112531 72.23034426 -101.32422733 70.92327023 C-101.30757787 66.22453338 -100.97103236 61.77537883 -100.18869019 57.14044189 C-99.52869019 57.14044189 -98.86869019 57.14044189 -98.18869019 57.14044189 C-98.12681519 55.92356689 -98.06494019 54.70669189 -98.00119019 53.45294189 C-97.04053613 44.79333173 -93.7681013 36.78778717 -88.18869019 30.14044189 C-87.27929222 28.69052851 -86.38292075 27.23234499 -85.50119019 25.76544189 C-82.26151527 20.81893058 -78.20191253 17.25866619 -73.18869019 14.14044189 C-72.52869019 14.14044189 -71.86869019 14.14044189 -71.18869019 14.14044189 C-71.18869019 13.48044189 -71.18869019 12.82044189 -71.18869019 12.14044189 C-69.62749597 11.34620328 -68.06467055 10.55517066 -66.50119019 9.76544189 C-65.631073 9.32458252 -64.76095581 8.88372314 -63.86447144 8.42950439 C-59.6704129 6.40900904 -56.91240105 5.14044189 -52.18869019 5.14044189 C-52.18869019 4.48044189 -52.18869019 3.82044189 -52.18869019 3.14044189 C-35.05133204 -0.59927821 -17.44110168 -0.00714167 0 0 Z M55.00662231 153.81231689 C54.47681763 154.84098877 54.47681763 154.84098877 53.93630981 155.89044189 C53.55345825 156.61231689 53.17060669 157.33419189 52.77615356 158.07794189 C52.45775513 158.75856689 52.13935669 159.43919189 51.81130981 160.14044189 C51.37818481 161.04794189 50.94505981 161.95544189 50.49880981 162.89044189 C49.61649746 165.3858944 49.61649746 165.3858944 49.81130981 169.14044189 C49.15130981 169.14044189 48.49130981 169.14044189 47.81130981 169.14044189 C45.82746648 178.81807493 45.38993298 188.35314469 45.17849731 198.18731689 C45.13711307 199.84555539 45.09511639 201.5037787 45.05255127 203.1619873 C44.96504352 206.64151813 44.88326258 210.12111938 44.80593872 213.60089111 C44.70962898 217.92617345 44.60200237 222.25106869 44.48998833 226.5759697 C44.40191265 230.01396524 44.31915981 233.45207553 44.23779678 236.8902359 C44.19994853 238.47603531 44.1609876 240.06180883 44.12057114 241.64754486 C43.63285749 261.14599062 43.81130981 280.63056448 43.81130981 300.14044189 C199.90130981 300.14044189 355.99130981 300.14044189 516.81130981 300.14044189 C516.87326602 269.14933481 516.87326602 269.14933481 516.40896606 238.17559814 C516.36622057 236.37103472 516.32378527 234.56646394 516.28163147 232.7618866 C516.19469756 229.08403559 516.10458559 225.40628327 516.01174927 221.72857666 C515.89362292 217.04046989 515.78360523 212.35221035 515.67574406 207.66385746 C515.59028581 203.98252654 515.50101209 200.30129585 515.41055107 196.62008476 C515.36839447 194.88870316 515.32732423 193.1572947 515.28743172 191.42585945 C515.01107951 179.25221929 515.01107951 179.25221929 513.81130981 167.14044189 C513.15130981 167.14044189 512.49130981 167.14044189 511.81130981 167.14044189 C511.70818481 166.41341064 511.60505981 165.68637939 511.49880981 164.93731689 C510.74405041 161.86681842 509.61344446 159.97234634 507.81130981 157.39044189 C507.00693481 156.22255127 507.00693481 156.22255127 506.18630981 155.03106689 C504.56427994 152.58120811 504.56427994 152.58120811 501.92325324 151.82849991 C493.04766645 150.99371587 484.19801488 151.00077708 475.29380798 151.01345825 C473.52460103 151.01230467 471.75539433 151.01071555 469.98618811 151.00873101 C465.14660574 151.00457045 460.30704318 151.00661354 455.46746075 151.00971723 C450.23977535 151.01198441 445.0120933 151.00848518 439.78440857 151.0057373 C429.55291339 151.00129503 419.32142556 151.00224915 409.08993009 151.00514995 C400.77504258 151.00740966 392.46015713 151.00771403 384.14526939 151.00662613 C382.96121496 151.0064729 381.77716052 151.00631966 380.55722564 151.00616179 C378.15177236 151.00584206 375.74631909 151.00551784 373.34086581 151.0051892 C350.79593336 151.00233902 328.25100497 151.00561438 305.70607319 151.01098956 C286.36134859 151.01545892 267.01663 151.01467969 247.67190552 151.0100708 C225.20218564 151.00471988 202.73246932 151.00261184 180.2627489 151.00568306 C177.86713358 151.00600161 175.47151826 151.00631598 173.07590294 151.00662613 C171.30789999 151.00685754 171.30789999 151.00685754 169.50417981 151.00709363 C161.19771479 151.0079571 152.89125204 151.00649959 144.58478737 151.00414658 C134.4645237 151.00134273 124.3442678 151.00209931 114.22400502 151.00742732 C109.06052873 151.01005613 103.89706537 151.01108321 98.73358917 151.00777817 C94.00700349 151.0047985 89.28044274 151.00643595 84.55385932 151.01175572 C82.84409771 151.01287273 81.134334 151.01230457 79.42457376 151.00987993 C77.09941951 151.00683551 74.77435046 151.00996219 72.44920063 151.01460075 C70.51245786 151.01484428 70.51245786 151.01484428 68.53658897 151.01509273 C61.23761964 150.91529329 61.23761964 150.91529329 55.00662231 153.81231689 Z " fill="#959595" transform="translate(778.1886901855469,-0.14044189453125)"/>
<path d="M0 0 C1.07684555 0.00264359 1.07684555 0.00264359 2.17544556 0.00534058 C13.96073537 0.06962308 24.70380969 1.20223193 35.75 5.5 C36.95527344 5.92667969 38.16054687 6.35335938 39.40234375 6.79296875 C53.73822948 12.80791293 64.43353064 26.06894412 73.77734375 38.11328125 C75.79438582 40.55370245 77.96371103 42.56921824 80.3125 44.6875 C93.38242628 57.59803693 99.27434239 80.49325491 99.88142776 98.37016869 C99.88940051 99.73946551 99.89214682 101.10879992 99.89044189 102.4781189 C99.89341302 103.23996195 99.89638414 104.00180501 99.8994453 104.78673422 C99.90805779 107.31795794 99.9096342 109.84913394 99.91113281 112.38037109 C99.91576645 114.20453999 99.92079183 116.02870793 99.92617798 117.85287476 C99.93925557 122.79560039 99.9457384 127.73831247 99.95018864 132.68105268 C99.95312821 135.77681756 99.95723476 138.8725788 99.96169281 141.96834183 C99.97535847 151.67637532 99.98502844 161.38440043 99.9888947 171.09244287 C99.99336664 182.25687607 100.01087826 193.4211863 100.0398953 204.58558214 C100.06160276 213.24158198 100.07160387 221.89754747 100.07293582 230.5535742 C100.07397782 235.71061355 100.07975485 240.86753717 100.09775543 246.02454758 C100.11439256 250.88540492 100.11631684 255.74606151 100.10761642 260.60693741 C100.10685421 262.37642713 100.11107891 264.14592836 100.12107468 265.91539001 C100.26911919 293.79091881 93.67789707 316.77005665 75.75 338.5 C75.04101562 339.37527344 74.33203125 340.25054688 73.6015625 341.15234375 C57.13531392 360.52620129 33.10893102 373.3211897 7.75 375.5 C-21.58196651 377.2486765 -52.34485239 373.49963205 -75.25 353.5 C-76.95779973 351.87550757 -78.62550757 350.20779973 -80.25 348.5 C-81.12205078 347.65888672 -81.12205078 347.65888672 -82.01171875 346.80078125 C-86.71883687 342.24162755 -90.91973285 337.41362421 -95.01171875 332.296875 C-96.46947736 330.47531276 -97.95037064 328.67195118 -99.45703125 326.890625 C-107.86227565 316.84799533 -110.37722172 308.36255618 -110.45532227 295.46166992 C-110.46521337 294.44672329 -110.47510447 293.43177666 -110.4852953 292.38607407 C-110.51700707 289.00089611 -110.54177339 285.61570507 -110.56640625 282.23046875 C-110.58718898 279.83117883 -110.60832461 277.43189194 -110.62979126 275.03260803 C-110.68591197 268.58637365 -110.73541294 262.14010559 -110.7828331 255.69380188 C-110.81225856 251.69466225 -110.84337475 247.69553663 -110.87466431 243.69641113 C-111.01802763 225.29771384 -111.14137554 206.89893809 -111.25 188.5 C-111.25671219 187.37319069 -111.26342438 186.24638138 -111.27033997 185.08542633 C-111.34372571 172.63507371 -111.40164153 160.18483323 -111.42623901 147.73428345 C-111.43274527 144.45688963 -111.44350675 141.17955789 -111.45828247 137.90219116 C-111.7382569 72.14883929 -111.7382569 72.14883929 -101.25 53.5 C-100.69441406 52.43136719 -100.13882813 51.36273437 -99.56640625 50.26171875 C-94.44575937 41.28633101 -88.4083492 35.65454413 -80.25 29.5 C-79.63108887 29.02256348 -79.01217773 28.54512695 -78.37451172 28.05322266 C-67.20395676 19.44752537 -56.1026744 13.10151672 -43 7.8125 C-42.071875 7.4314209 -41.14375 7.0503418 -40.1875 6.65771484 C-27.0933561 1.5326416 -13.95064239 -0.09226481 0 0 Z " fill="#545454" transform="translate(1065.25,1206.5)"/>
<path d="M0 0 C0.66 0.33 1.32 0.66 2 1 C-3 6 -8 11 -13 16 C-10.5464324 8.84376118 -5.69501756 4.65519694 0 0 Z " fill="#686664" transform="translate(981,1239)"/>
</svg>
