<svg width="27" height="21" viewBox="0 0 27 21" fill="none" xmlns="http://www.w3.org/2000/svg">
<path d="M12.6155 10.3071C12.6155 10.3071 7.86012 14.4656 6.51259 15.6941C5.46941 16.6427 7.20646 18.4522 8.19602 17.6275C10.8241 15.4315 13.3157 13.8033 13.3157 13.8033L13.6051 14.218C12.5729 14.841 9.90468 16.4716 8.52009 17.7174C7.47613 18.6557 9.12486 20.5189 10.1704 19.5822C11.607 18.2938 14.8974 15.9827 14.8974 15.9827L15.1876 16.2855C14.336 16.8209 13.0019 17.8151 11.2569 19.4063C10.2067 20.3643 11.745 21.3657 12.6478 20.6159C15.1048 18.5768 15.1962 17.1599 17.9 16.0032C22.0262 14.2385 12.6155 10.3071 12.6155 10.3071Z" fill="#EF9645"/>
<path d="M22.8497 3.0814C23.5443 2.73604 24.1531 3.19494 24.5102 3.91168C24.8635 4.62999 26.5067 7.86596 26.8387 8.53933C27.1738 9.21113 26.9893 10.1975 26.2717 10.5524C25.5534 10.9095 24.5102 11.3834 23.8337 12.533C23.4671 13.1591 21.9445 14.8094 17.8183 16.5772C15.1162 17.73 12.9573 19.6823 12.0931 20.362C11.3945 20.9123 9.98545 19.8597 11.0341 18.9033C12.7799 17.3105 14.114 16.3162 14.9648 15.7824L14.6746 15.4781C14.6746 15.4781 11.2202 17.8877 9.75599 19.1445C8.76171 20.0001 7.43941 18.3931 8.48416 17.4556C9.86954 16.2098 12.3493 14.3379 13.3815 13.715L13.0929 13.2979C13.0929 13.2979 10.3884 15.057 7.75874 17.2561C6.88115 17.9894 5.51391 16.3422 6.55629 15.3921C7.90462 14.166 10.5327 11.9677 12.1491 11.0562L11.9945 10.576C11.9945 10.576 9.45716 11.9992 7.26673 14.1195C6.48296 14.8772 4.92175 13.4745 6.06428 12.3115C8.79403 9.53441 12.3391 7.88883 13.2821 7.25488C14.5484 6.40331 15.2147 5.87187 14.5484 5.57303C13.5439 5.12122 11.8707 3.53714 11.2289 2.25348C10.3986 0.592915 11.5758 -0.719135 12.8887 0.592915C13.719 1.4232 15.3795 3.08297 17.0385 3.08297C19.2691 3.08297 19.6106 3.91325 21.1891 3.91325C22.0202 3.91168 22.8497 3.0814 22.8497 3.0814Z" fill="#FFCC4D"/>
<path d="M18.9612 8.07357C18.6979 8.07436 17.8266 7.9553 16.8449 7.50191C15.9989 7.1124 15.3429 6.40591 14.7972 5.81296C14.828 5.93991 14.746 6.09209 14.5741 6.27029C15.111 6.89477 15.9326 7.60757 16.6667 7.96239C17.5199 8.37635 18.4921 8.5853 18.9305 8.56716C19.3815 8.54824 19.2341 8.07672 18.9612 8.07357ZM20.6699 14.8388C18.8848 14.0078 17.4671 13.3139 19.9019 14.3184C20.9088 14.7324 22.4204 12.6941 20.9388 12.0184C17.9567 10.6575 8.673 5.57642 8.673 5.57642C8.673 5.57642 3.65189 11.4404 4.27322 11.8165C4.89534 12.1903 5.15475 14.8514 8.74003 17.1925C12.129 19.4066 14.2398 20.3583 15.033 20.7549C16.6943 21.5852 17.7746 19.4318 16.4783 18.853C14.2445 17.8548 14.3225 17.7941 17.5964 19.1542C18.8083 19.6589 19.827 17.3801 18.5465 16.8037C16.6368 15.9451 16.4649 15.841 19.5234 17.2193C20.6549 17.7263 21.9465 15.4341 20.6699 14.8388Z" fill="#EF9645"/>
<path d="M4.80161 3.42993C4.1377 3.02859 3.25617 3.22808 2.84221 3.91485C2.42825 4.60163 0.612353 7.60736 0.225203 8.25156C-0.162734 8.89497 -0.0618075 9.89083 0.62418 10.3048C1.31017 10.7195 2.55362 11.4694 3.17574 11.8439C3.79786 12.22 6.33838 15.374 10.0057 17.5834C13.6706 19.7974 15.0252 20.1743 15.85 20.4984C16.6779 20.8217 17.7715 19.1714 16.4752 18.5934C14.2383 17.5936 12.6621 16.6711 11.8555 16.0663L12.1062 15.605C12.1062 15.605 14.3431 17.2766 17.6154 18.6391C18.8273 19.1438 19.8153 17.2561 18.5356 16.6782C16.625 15.8195 14.2682 14.3963 13.2913 13.6898L13.5641 13.2396C13.5641 13.2396 16.6755 15.2061 19.7341 16.5843C20.8624 17.0929 21.8094 15.1761 20.5328 14.58C18.7508 13.7489 16.2371 12.25 14.7027 11.2076L14.9692 10.8134C14.9692 10.8134 17.8196 12.8248 20.256 13.8278C21.2629 14.2441 22.4481 12.3604 20.9649 11.6823C17.9852 10.3221 14.6065 7.94168 13.7202 7.23204C12.9964 6.65092 12.789 5.32941 14.5497 4.74198C17.0398 3.9117 17.8701 2.25192 17.8701 1.42164C17.8701 0.247577 16.7851 -0.270462 16.2111 0.59136C14.5497 3.08142 13.7147 2.233 12.0613 3.08142C10.079 4.09936 7.75136 5.18038 6.40067 4.36508C5.82271 4.01736 4.80161 3.42993 4.80161 3.42993Z" fill="#FFDC5D"/>
<path d="M14.1518 5.35625L18.4302 3.21786C18.0541 3.13743 17.6102 3.08224 17.0401 3.08224C15.3811 3.08224 13.7205 1.42246 12.8902 0.592183C11.5774 -0.719868 10.4002 0.592183 11.2305 2.25275C11.7942 3.37871 13.1489 4.73492 14.1518 5.35625Z" fill="#FFCC4D"/>
</svg>
