<?xml version="1.0" standalone="no"?>
<!DOCTYPE svg PUBLIC "-//W3C//DTD SVG 20010904//EN"
 "http://www.w3.org/TR/2001/REC-SVG-20010904/DTD/svg10.dtd">
<svg version="1.0" xmlns="http://www.w3.org/2000/svg"
 width="1250.000000pt" height="500.000000pt" viewBox="0 0 1250.000000 500.000000"
 preserveAspectRatio="xMidYMid meet">

<g transform="translate(0.000000,500.000000) scale(0.100000,-0.100000)"
fill="#000000" stroke="none">
<path d="M8920 4125 c-30 -36 -4 -95 41 -95 40 0 66 69 37 98 -17 17 -63 15
-78 -3z m69 -24 c13 -24 -8 -55 -34 -50 -28 6 -42 34 -26 53 18 22 48 20 60
-3z"/>
<path d="M8846 4004 c-8 -21 1 -34 25 -34 14 0 19 7 19 25 0 29 -34 36 -44 9z"/>
<path d="M8994 3986 c-11 -29 0 -51 26 -51 21 0 25 5 25 30 0 24 -5 31 -23 33
-13 2 -24 -3 -28 -12z m36 -21 c0 -8 -4 -15 -9 -15 -13 0 -22 16 -14 24 11 11
23 6 23 -9z"/>
<path d="M8623 3757 c-84 -307 -90 -425 -31 -625 20 -68 20 -81 10 -187 -13
-135 -44 -273 -76 -335 l-22 -45 -65 -3 c-88 -3 -109 -9 -109 -31 0 -26 38
-48 138 -82 71 -24 102 -29 183 -29 100 0 117 7 103 44 -5 13 -91 56 -112 56
-5 0 -16 8 -25 18 -36 40 -15 207 50 404 28 86 47 122 91 180 97 128 138 241
183 508 16 96 29 182 29 192 0 13 -29 23 -137 48 -76 17 -145 33 -153 36 -12
3 -24 -29 -57 -149z"/>
<path d="M9130 3873 c-63 -8 -117 -17 -119 -19 -12 -12 20 -425 39 -501 22
-93 68 -200 106 -250 68 -89 123 -509 75 -567 -8 -9 -32 -21 -55 -26 -60 -15
-106 -38 -106 -52 1 -39 16 -43 152 -42 115 0 143 3 203 25 61 21 70 27 70 49
0 24 -4 25 -70 33 -78 8 -97 22 -115 85 -35 125 -40 428 -7 489 9 17 29 71 44
120 24 81 27 101 26 243 -1 112 -8 192 -25 290 l-23 135 -40 1 c-22 1 -92 -5
-155 -13z"/>
<path d="M4271 3825 c-121 -34 -209 -107 -260 -215 -22 -48 -26 -68 -26 -160
0 -95 3 -110 28 -162 47 -97 112 -145 356 -265 179 -88 223 -114 266 -157 65
-65 83 -123 65 -212 -10 -47 -20 -65 -60 -105 -64 -64 -127 -83 -259 -77 -82
3 -106 8 -163 35 -110 52 -178 133 -218 263 -16 50 -21 55 -49 58 -29 3 -31 1
-31 -30 0 -47 21 -339 26 -365 7 -35 40 -29 60 10 30 59 32 59 80 26 148 -102
339 -125 522 -63 83 27 131 56 184 108 80 79 125 201 115 314 -16 170 -102
250 -453 422 -210 103 -273 152 -294 231 -40 149 64 263 240 263 147 -1 255
-85 315 -246 16 -45 20 -48 52 -48 l35 0 -6 103 c-16 255 -16 257 -40 257 -14
0 -28 -13 -44 -40 l-22 -40 -41 30 c-96 69 -262 97 -378 65z"/>
<path d="M7521 3825 c-121 -34 -209 -107 -260 -215 -22 -48 -26 -68 -26 -160
0 -95 3 -110 28 -162 47 -97 112 -145 356 -265 179 -88 223 -114 266 -157 65
-65 83 -123 65 -212 -10 -47 -20 -65 -60 -105 -64 -64 -127 -83 -259 -77 -82
3 -106 8 -163 35 -110 52 -178 133 -218 263 -16 51 -20 55 -50 58 l-33 3 6
-83 c4 -46 9 -130 12 -188 4 -58 8 -115 11 -127 7 -35 40 -29 60 10 30 59 32
59 80 26 148 -102 339 -125 522 -63 83 27 131 56 184 108 80 79 125 201 115
314 -16 170 -102 250 -453 422 -210 103 -273 152 -294 231 -40 149 64 263 240
263 147 -1 255 -85 315 -246 16 -45 20 -48 52 -48 l35 0 -6 103 c-16 255 -16
257 -40 257 -14 0 -28 -13 -44 -40 l-22 -40 -41 30 c-96 69 -262 97 -378 65z"/>
<path d="M5110 3786 c0 -32 1 -34 48 -40 26 -3 61 -15 78 -25 58 -36 59 -43
59 -621 0 -494 -1 -527 -19 -563 -23 -46 -56 -64 -130 -73 -56 -7 -56 -7 -56
-40 l0 -34 305 0 305 0 0 34 c0 33 0 33 -56 40 -81 9 -109 27 -131 83 -17 44
-18 87 -18 558 0 474 1 513 19 559 15 39 26 51 60 67 22 10 56 19 74 19 30 0
32 2 32 35 l0 35 -285 0 -285 0 0 -34z"/>
<path d="M5890 3786 c0 -33 0 -34 57 -41 72 -9 108 -42 118 -106 3 -24 5 -278
3 -564 -2 -419 -6 -525 -17 -547 -17 -33 -60 -55 -129 -64 -51 -6 -52 -7 -52
-40 l0 -34 325 0 325 0 0 34 0 33 -74 6 c-90 6 -123 21 -153 66 -22 33 -23 41
-23 271 l0 237 168 6 c368 12 527 111 561 351 32 223 -94 368 -363 415 -34 6
-207 11 -403 11 l-343 0 0 -34z m716 -71 c63 -18 117 -71 138 -133 21 -59 21
-215 1 -271 -42 -120 -136 -167 -352 -178 l-123 -6 0 301 c0 278 1 301 18 306
33 10 267 -3 318 -19z"/>
<path d="M4271 2245 c-121 -34 -209 -107 -260 -215 -22 -48 -26 -68 -26 -160
0 -95 3 -110 28 -162 47 -97 112 -145 356 -265 179 -88 223 -114 266 -157 65
-65 83 -123 65 -212 -10 -47 -20 -65 -60 -105 -64 -64 -127 -83 -259 -77 -82
3 -106 8 -163 35 -110 52 -178 133 -218 263 -16 50 -21 55 -49 58 -29 3 -31 2
-31 -32 0 -53 20 -338 26 -363 7 -35 40 -29 60 10 30 59 32 59 80 26 148 -102
339 -125 522 -63 83 27 131 56 184 108 80 79 125 201 115 314 -16 170 -102
250 -453 422 -210 103 -273 152 -294 231 -40 149 64 263 240 263 147 -1 255
-85 315 -246 16 -45 20 -48 52 -48 l35 0 -6 103 c-16 255 -16 257 -40 257 -14
0 -28 -13 -44 -40 l-22 -40 -41 30 c-96 69 -262 97 -378 65z"/>
<path d="M11101 2245 c-121 -34 -210 -107 -259 -213 -21 -46 -27 -75 -30 -149
-5 -131 12 -179 98 -265 61 -61 83 -75 281 -171 292 -144 339 -188 339 -319
-1 -163 -111 -245 -319 -236 -89 3 -105 7 -173 41 -110 54 -182 142 -211 257
-13 51 -17 55 -46 58 -37 4 -36 16 -19 -240 11 -172 12 -178 33 -178 15 0 28
13 45 43 13 23 24 44 26 46 1 1 18 -8 36 -22 196 -150 532 -136 708 29 120
112 160 307 91 443 -52 100 -131 158 -403 291 -255 125 -317 184 -318 300 -1
222 337 284 491 89 26 -33 64 -109 82 -161 5 -13 17 -18 43 -18 l36 0 -6 58
c-3 31 -8 112 -12 180 -6 120 -7 122 -30 122 -17 0 -29 -10 -44 -40 l-21 -41
-46 32 c-25 18 -69 41 -97 52 -68 26 -203 32 -275 12z"/>
<path d="M5110 2207 l0 -34 59 -7 c78 -9 106 -32 120 -97 14 -62 15 -1026 1
-1083 -14 -61 -46 -86 -129 -99 l-71 -11 0 -33 0 -33 330 0 330 0 0 34 0 33
-74 6 c-41 3 -91 13 -111 23 -63 29 -69 56 -73 322 l-4 232 119 0 c366 0 550
89 609 294 22 80 16 215 -13 271 -45 84 -142 154 -269 191 -50 15 -115 18
-441 21 l-383 4 0 -34z m647 -57 c164 -21 233 -106 233 -285 0 -140 -50 -231
-150 -274 -61 -26 -181 -43 -275 -39 l-70 3 -3 290 c-2 264 -1 291 15 303 20
14 145 16 250 2z"/>
<path d="M6709 1608 c-282 -705 -276 -693 -378 -718 -49 -12 -51 -13 -51 -46
l0 -34 225 0 225 0 0 35 c0 32 -2 35 -30 35 -49 0 -99 26 -111 57 -5 15 -7 45
-3 68 7 43 60 200 93 278 l20 47 248 0 248 0 58 -150 c55 -145 71 -224 49
-256 -13 -20 -49 -33 -106 -40 -56 -7 -56 -7 -56 -40 l0 -34 305 0 305 0 0 34
c0 33 -1 34 -51 41 -73 10 -116 53 -172 168 -24 51 -143 338 -263 639 l-219
548 -41 0 -42 0 -253 -632z m349 87 c50 -132 94 -248 97 -257 7 -17 -7 -18
-204 -18 -116 0 -211 3 -211 7 0 7 199 512 208 527 7 13 11 4 110 -259z"/>
<path d="M7830 2206 c0 -33 0 -34 57 -41 72 -9 108 -42 118 -106 3 -24 5 -278
3 -564 -2 -419 -6 -525 -17 -547 -17 -33 -60 -55 -129 -64 -51 -6 -52 -7 -52
-40 l0 -34 325 0 325 0 0 34 0 33 -74 6 c-90 6 -123 21 -153 66 -22 33 -23 40
-23 289 l0 255 56 -6 c34 -4 70 -15 91 -29 20 -13 143 -161 277 -333 l242
-310 182 -3 182 -2 0 34 c0 33 -2 34 -52 47 -68 16 -105 32 -145 62 -30 22
-463 534 -463 547 0 3 23 11 52 18 176 41 282 145 307 301 35 215 -97 363
-363 410 -34 6 -207 11 -403 11 l-343 0 0 -34z m719 -71 c106 -37 143 -94 149
-233 5 -109 -8 -165 -50 -216 -58 -70 -171 -106 -340 -106 l-98 0 0 284 c0
262 1 285 18 290 34 10 278 -4 321 -19z"/>
<path d="M9290 2205 l0 -35 49 0 c70 0 112 -31 129 -95 19 -77 13 -1089 -7
-1128 -20 -38 -61 -58 -133 -64 l-58 -6 0 -33 0 -34 305 0 305 0 0 34 0 33
-62 6 c-37 3 -71 13 -87 25 -48 35 -55 64 -59 252 l-4 175 67 78 67 77 199
-246 c210 -259 234 -293 224 -324 -7 -21 -54 -40 -101 -40 -32 0 -34 -2 -34
-35 l0 -35 285 0 285 0 0 35 c0 31 -3 35 -25 35 -36 0 -95 27 -129 58 -42 40
-576 681 -576 692 0 10 300 361 379 443 60 63 106 90 161 97 42 5 45 7 48 38
l3 32 -225 0 -226 0 0 -35 c0 -30 3 -35 24 -35 36 0 72 -16 80 -35 3 -9 -1
-30 -10 -46 -13 -27 -426 -532 -476 -584 -19 -20 -19 -17 -16 270 3 245 6 296
20 328 20 44 64 67 128 67 39 0 40 1 40 35 l0 35 -285 0 -285 0 0 -35z"/>
</g>
</svg>
