<?xml version="1.0" encoding="UTF-8"?>
<svg version="1.1" xmlns="http://www.w3.org/2000/svg" width="2117" height="1864">
<path d="M0 0 C2.5418579 -0.00258763 5.08371539 -0.00560189 7.62557232 -0.0090034 C13.85121576 -0.01619025 20.07684686 -0.0187737 26.30249395 -0.01933246 C33.76759969 -0.02025139 41.23269765 -0.0269343 48.69780001 -0.03367928 C66.7293301 -0.04968399 84.76085928 -0.05563539 102.79239519 -0.06042803 C111.32891304 -0.06276862 119.86543022 -0.06637168 128.40194754 -0.07012341 C157.64865512 -0.08295141 186.89536234 -0.09367327 216.14207268 -0.09712601 C217.97536407 -0.09734764 219.80865547 -0.09756942 221.64194686 -0.09779136 C223.47952271 -0.098012 225.31709856 -0.09823248 227.15467441 -0.09845281 C230.84083804 -0.09889535 234.52700166 -0.09934246 238.21316528 -0.09979248 C239.12710854 -0.09990187 240.04105179 -0.10001126 240.9826903 -0.10012397 C270.62707136 -0.10375579 300.27142798 -0.11968443 329.91579968 -0.14298284 C361.2919151 -0.16759706 392.66801654 -0.18129949 424.04414189 -0.18249393 C427.49023446 -0.18266537 430.93632702 -0.18288079 434.38241959 -0.18312836 C435.23088266 -0.18318413 436.07934574 -0.18323989 436.95351982 -0.18329735 C450.58416984 -0.1844461 464.21479467 -0.19545251 477.8454362 -0.21001541 C491.55066222 -0.22440465 505.25585607 -0.22760361 518.96108757 -0.21957543 C527.09360048 -0.2151314 535.2260093 -0.21893064 543.35850846 -0.23481394 C549.44369716 -0.24576378 555.5287681 -0.24088515 561.61396135 -0.23004207 C564.06600928 -0.22808857 566.51806774 -0.23114733 568.97010086 -0.23988643 C586.17384476 -0.29729188 602.89872106 -0.09485283 618.81130981 7.14044189 C621.1815226 8.06941667 623.55676031 8.98565078 625.93630981 9.89044189 C627.05263794 10.31841064 628.16896606 10.74637939 629.31912231 11.18731689 C630.14154419 11.50184814 630.96396606 11.81637939 631.81130981 12.14044189 C631.81130981 12.80044189 631.81130981 13.46044189 631.81130981 14.14044189 C632.95599731 14.54262939 632.95599731 14.54262939 634.12380981 14.95294189 C636.70119599 16.09178695 638.08085846 16.9546086 639.81130981 19.14044189 C639.81130981 19.80044189 639.81130981 20.46044189 639.81130981 21.14044189 C640.47130981 21.14044189 641.13130981 21.14044189 641.81130981 21.14044189 C641.81130981 21.80044189 641.81130981 22.46044189 641.81130981 23.14044189 C642.47130981 23.14044189 643.13130981 23.14044189 643.81130981 23.14044189 C645.53787231 25.47637939 645.53787231 25.47637939 647.43630981 28.51544189 C648.06795044 29.51317627 648.69959106 30.51091064 649.35037231 31.53887939 C650.81130981 34.14044189 650.81130981 34.14044189 650.81130981 36.14044189 C651.47130981 36.14044189 652.13130981 36.14044189 652.81130981 36.14044189 C653.61851299 38.05061735 654.40604821 39.96910407 655.18630981 41.89044189 C655.84759888 43.49145752 655.84759888 43.49145752 656.52224731 45.12481689 C660.90521123 57.78437565 660.08273682 71.24449817 660.0383606 84.44219971 C660.0377958 86.79861954 660.03811438 89.15503972 660.03924561 91.51145935 C660.03981743 97.88041149 660.02809065 104.24928769 660.01409769 110.61822224 C660.00283365 116.60834845 660.00084833 122.59847488 659.99879394 128.58860967 C659.99442811 140.44493126 659.98114934 152.30122516 659.96218872 164.15753174 C659.94380103 175.66762149 659.92965871 187.17770369 659.9211731 198.68780518 C659.92064765 199.39854444 659.9201222 200.1092837 659.91958083 200.84156051 C659.91697056 204.40750588 659.91444319 207.9734513 659.91195703 211.53939676 C659.89125918 241.07309633 659.85591433 270.60676862 659.81130981 300.14044189 C660.80803045 300.03557468 660.80803045 300.03557468 661.82488686 299.92858893 C670.95553168 299.05979835 680.04200235 298.97166231 689.20289612 298.94425964 C690.94793542 298.93554778 692.6929727 298.92642211 694.43800789 298.91692168 C699.20978038 298.89213779 703.9815605 298.87321441 708.75336301 298.85529029 C713.91465748 298.83486774 719.07592493 298.80896817 724.23719788 298.7837677 C734.36405537 298.73518805 744.4909286 298.69165776 754.61781596 298.64982455 C766.50857267 298.60051458 778.39930494 298.54618635 790.29003883 298.49169344 C811.62743521 298.39408132 832.96484905 298.30102538 854.30227661 298.21051025 C874.77397207 298.12366373 895.24565037 298.03369112 915.71731567 297.94000244 C916.96536133 297.93429117 918.21340699 297.92857991 919.49927222 297.92269557 C920.74560292 297.91699188 921.99193362 297.91128819 923.27603191 297.90541166 C946.80240584 297.79777141 970.32879268 297.69321654 993.85518644 297.5900091 C1000.89116897 297.55909052 1007.92714896 297.52765857 1014.96312713 297.49576404 C1040.0827086 297.3819644 1065.20226866 297.27864087 1090.32199985 297.20391351 C1101.48074076 297.1702921 1112.63939057 297.1292256 1123.79805374 297.07539749 C1134.3073093 297.02470846 1144.81654234 296.98508157 1155.32588621 296.95803135 C1160.83965392 296.94347577 1166.35328595 296.92400484 1171.86697662 296.89099109 C1215.09278548 296.63856446 1215.09278548 296.63856446 1234.81130981 300.14044189 C1234.81130981 300.80044189 1234.81130981 301.46044189 1234.81130981 302.14044189 C1235.9804895 302.26548096 1237.14966919 302.39052002 1238.35427856 302.51934814 C1249.36938918 303.9146761 1259.30670023 308.0928492 1269.06130981 313.20294189 C1269.8712439 313.62631836 1270.68117798 314.04969482 1271.51565552 314.48590088 C1275.55457654 316.67409417 1278.64296582 318.77576889 1281.81130981 322.14044189 C1283.22283325 323.08016846 1283.22283325 323.08016846 1284.66287231 324.03887939 C1288.1392845 326.35936297 1291.12345945 328.93703192 1294.18630981 331.76544189 C1294.73158325 332.25528564 1295.27685669 332.74512939 1295.83865356 333.24981689 C1297.20453798 334.50273342 1298.51335373 335.81728278 1299.81130981 337.14044189 C1299.81130981 337.80044189 1299.81130981 338.46044189 1299.81130981 339.14044189 C1300.80130981 339.47044189 1301.79130981 339.80044189 1302.81130981 340.14044189 C1304.42459106 342.10919189 1304.42459106 342.10919189 1306.12380981 344.64044189 C1306.73353638 345.54278564 1307.34326294 346.44512939 1307.97146606 347.37481689 C1308.5786145 348.28747314 1309.18576294 349.20012939 1309.81130981 350.14044189 C1310.36689575 350.94997314 1310.92248169 351.75950439 1311.49490356 352.59356689 C1318.81130981 363.32186334 1318.81130981 363.32186334 1318.81130981 367.14044189 C1319.47130981 367.14044189 1320.13130981 367.14044189 1320.81130981 367.14044189 C1322.08536307 370.45171218 1323.35494797 373.76467918 1324.62380981 377.07794189 C1325.15844849 378.467229 1325.15844849 378.467229 1325.70388794 379.88458252 C1329.1618393 388.92601497 1332.11537868 397.68311394 1333.93630981 407.20294189 C1334.105177 408.04921143 1334.27404419 408.89548096 1334.44802856 409.76739502 C1335.84123846 416.88154162 1336.96475451 423.86486607 1336.87380981 431.14044189 C1336.86478638 432.08919189 1336.85576294 433.03794189 1336.84646606 434.01544189 C1336.8348645 434.71669189 1336.82326294 435.41794189 1336.81130981 436.14044189 C1337.47130981 436.14044189 1338.13130981 436.14044189 1338.81130981 436.14044189 C1338.81130981 697.17044189 1338.81130981 958.20044189 1338.81130981 1227.14044189 C1338.15130981 1227.14044189 1337.49130981 1227.14044189 1336.81130981 1227.14044189 C1336.83233765 1227.7361499 1336.85336548 1228.33185791 1336.87503052 1228.94561768 C1337.00434755 1235.50829804 1336.25273097 1241.58429491 1334.99880981 1248.01544189 C1334.81866333 1248.97273193 1334.63851685 1249.93002197 1334.45291138 1250.9163208 C1333.14871334 1257.7246962 1331.67169094 1264.4599824 1329.81130981 1271.14044189 C1329.15130981 1271.14044189 1328.49130981 1271.14044189 1327.81130981 1271.14044189 C1327.64115356 1271.74630127 1327.47099731 1272.35216064 1327.29568481 1272.97637939 C1325.4956404 1279.19993722 1323.31512549 1285.1668715 1320.81130981 1291.14044189 C1320.15130981 1291.14044189 1319.49130981 1291.14044189 1318.81130981 1291.14044189 C1318.53931763 1291.85200439 1318.26732544 1292.56356689 1317.98709106 1293.29669189 C1316.79683365 1296.17545402 1315.46234743 1298.89099919 1313.99880981 1301.64044189 C1313.5179895 1302.55825439 1313.03716919 1303.47606689 1312.54177856 1304.42169189 C1308.70822797 1310.4446066 1302.80198789 1314.90163014 1297.53005981 1319.64044189 C1294.88305001 1322.07447389 1292.34962763 1324.59398845 1289.81130981 1327.14044189 C1288.32490561 1328.53012802 1286.82539334 1329.90596549 1285.31130981 1331.26544189 C1284.57912231 1331.92802002 1283.84693481 1332.59059814 1283.09255981 1333.27325439 C1279.00439873 1336.61938624 1276.49215092 1338.31635786 1271.13748169 1338.21905518 C1270.32726563 1338.20770538 1269.51704956 1338.19635559 1268.68228149 1338.18466187 C1267.75615051 1338.16277298 1267.75615051 1338.16277298 1266.81130981 1338.14044189 C1266.82272758 1338.70490115 1266.83414536 1339.26936041 1266.84590912 1339.85092449 C1267.50208923 1372.60948687 1267.91685532 1405.36423612 1268.09255981 1438.12872314 C1268.09961594 1439.44158952 1268.09961594 1439.44158952 1268.10681462 1440.78097844 C1268.16557599 1451.80403022 1268.218787 1462.8271063 1268.27042311 1473.85019344 C1268.34908807 1490.57457987 1268.43827259 1507.29891545 1268.52600288 1524.0232563 C1268.54697376 1528.02322876 1268.56777302 1532.02320206 1268.58842278 1536.02317619 C1268.73221125 1563.85152227 1268.89890736 1591.6796124 1269.09646606 1619.50762939 C1269.10234033 1620.33653521 1269.1082146 1621.16544103 1269.11426687 1622.01946521 C1269.22546346 1637.69446633 1269.3401817 1653.36944069 1269.45777965 1669.04439503 C1269.85066567 1721.4343344 1269.85066567 1721.4343344 1269.86209106 1739.24591064 C1269.86358658 1740.42932541 1269.86508209 1741.61274017 1269.86662292 1742.83201599 C1269.84817582 1761.02859283 1269.75159143 1779.49657898 1264.81130981 1797.14044189 C1264.15130981 1797.14044189 1263.49130981 1797.14044189 1262.81130981 1797.14044189 C1262.69658325 1797.86231689 1262.58185669 1798.58419189 1262.46365356 1799.32794189 C1258.50749521 1816.38443301 1240.46556062 1834.74782012 1226.19412231 1843.80059814 C1219.47678909 1847.91861547 1219.47678909 1847.91861547 1215.81130981 1849.14044189 C1215.41041138 1849.59419189 1215.00951294 1850.04794189 1214.59646606 1850.51544189 C1211.89756507 1852.97220954 1208.63226047 1853.93184185 1205.24880981 1855.14044189 C1204.25010864 1855.51169189 1204.25010864 1855.51169189 1203.23123169 1855.89044189 C1201.10052364 1856.6704151 1198.9589874 1857.4084762 1196.81130981 1858.14044189 C1196.08272751 1858.39175715 1195.3541452 1858.64307241 1194.60348464 1858.90200328 C1188.15815074 1860.99023538 1181.99161295 1861.85144126 1175.24752098 1862.31158483 C1174.16009557 1862.39132753 1173.07267016 1862.47107022 1171.95229246 1862.55322937 C1160.24570987 1863.34777093 1148.5604549 1863.42265632 1136.83193111 1863.40215492 C1134.41025546 1863.40535162 1131.98858083 1863.40941855 1129.56690791 1863.4142642 C1124.33206305 1863.42277052 1119.09725289 1863.42524578 1113.86240356 1863.42216308 C1106.02174721 1863.41758653 1098.18112925 1863.4246893 1090.34047848 1863.43389478 C1076.96141833 1863.4492726 1063.58236879 1863.4553394 1050.20330048 1863.45622826 C1036.65033252 1863.45716731 1023.09737659 1863.46248414 1009.54441261 1863.4730587 C1008.6857797 1863.47372603 1007.82714678 1863.47439335 1006.94249468 1863.4750809 C1002.56278845 1863.47850451 998.18308228 1863.48199811 993.80337613 1863.485516 C962.10091373 1863.51083385 930.39845241 1863.52652642 898.69598198 1863.53709793 C867.12432948 1863.54765291 835.55268318 1863.56232685 803.98103523 1863.58237839 C802.99550451 1863.58300237 802.00997379 1863.58362635 800.9945785 1863.58426925 C791.98712684 1863.58997371 782.97967522 1863.5957258 773.97222364 1863.60153577 C751.56009383 1863.6159901 729.14796365 1863.6298045 706.73583317 1863.64317894 C705.71472611 1863.64378876 704.69361904 1863.64439858 703.64156934 1863.64502688 C653.93765377 1863.67465342 604.23373524 1863.69688835 554.52981567 1863.71856689 C487.20143863 1863.74794534 419.87306592 1863.78143571 352.54469416 1863.82119072 C349.38129674 1863.82305855 346.21789932 1863.82492421 343.0545019 1863.8267894 C325.1955746 1863.83732193 307.33664733 1863.84789494 289.47772009 1863.85852221 C189.54400932 1863.91798675 89.61029628 1863.97433718 -35.71083007 1864.03787493 C-38.51298219 1864.03927499 -41.31513432 1864.04067888 -44.11728644 1864.04208327 C-84.78253477 1864.06244082 -125.44778276 1864.08100395 -166.11303428 1864.09365948 C-169.60155917 1864.09474781 -173.09008405 1864.09585208 -176.57860894 1864.09695666 C-180.91977174 1864.09833091 -185.26093453 1864.09969868 -189.60209733 1864.10106671 C-190.45904724 1864.10133697 -191.31599715 1864.10160724 -192.19891524 1864.10188569 C-200.79871599 1864.10459592 -209.39851674 1864.10728691 -217.99831753 1864.10983898 C-260.38245643 1864.12244565 -302.76655958 1864.14677943 -345.15067949 1864.18930591 C-348.66626456 1864.19282675 -352.18184963 1864.19633712 -355.69743472 1864.19983685 C-356.99909964 1864.20113403 -356.99909964 1864.20113403 -358.32706082 1864.20245741 C-371.23446674 1864.21524841 -384.14187302 1864.22595407 -397.04928225 1864.23477829 C-397.88336258 1864.2353501 -398.7174429 1864.23592191 -399.57679839 1864.23651105 C-407.88141419 1864.24216945 -416.18603013 1864.24753146 -424.49064637 1864.25249685 C-428.55697761 1864.25494121 -432.62330879 1864.25747858 -436.68963993 1864.26007915 C-437.4873859 1864.26058859 -438.28513188 1864.26109803 -439.10705197 1864.26162291 C-451.69149289 1864.26987241 -464.2759157 1864.28502136 -476.86034582 1864.30318195 C-489.28104183 1864.32098344 -501.70172707 1864.33157116 -514.12243558 1864.33479774 C-520.7748961 1864.33673486 -527.42732 1864.34206512 -534.07976882 1864.35641477 C-598.11356934 1864.48933373 -598.11356934 1864.48933373 -624.18869019 1860.14044189 C-624.18869019 1859.48044189 -624.18869019 1858.82044189 -624.18869019 1858.14044189 C-626.10488159 1857.98768799 -626.10488159 1857.98768799 -628.05978394 1857.83184814 C-633.36750874 1857.24210094 -638.20213315 1855.76618362 -643.25119019 1854.07794189 C-644.11679565 1853.79628174 -644.98240112 1853.51462158 -645.87423706 1853.22442627 C-647.98171737 1852.53745755 -650.08627969 1851.84274124 -652.18869019 1851.14044189 C-652.18869019 1850.48044189 -652.18869019 1849.82044189 -652.18869019 1849.14044189 C-653.04591675 1849.03989502 -653.90314331 1848.93934814 -654.78634644 1848.83575439 C-665.97327765 1846.54956179 -674.48939938 1839.20763707 -681.12619019 1830.32794189 C-683.18869019 1827.14044189 -683.18869019 1827.14044189 -683.18869019 1825.14044189 C-683.84869019 1825.14044189 -684.50869019 1825.14044189 -685.18869019 1825.14044189 C-686.36045536 1823.01811211 -687.52623803 1820.89286398 -688.68869019 1818.76544189 C-689.02255737 1818.16216064 -689.35642456 1817.55887939 -689.70040894 1816.93731689 C-692.18869019 1812.36700439 -692.18869019 1812.36700439 -692.18869019 1810.14044189 C-692.84869019 1810.14044189 -693.50869019 1810.14044189 -694.18869019 1810.14044189 C-695.36603978 1807.06108223 -696.52866909 1803.97636673 -697.68869019 1800.89044189 C-698.02255737 1800.01774658 -698.35642456 1799.14505127 -698.70040894 1798.24591064 C-699.01622925 1797.40157471 -699.33204956 1796.55723877 -699.65744019 1795.68731689 C-699.9507019 1794.91226807 -700.24396362 1794.13721924 -700.54611206 1793.33868408 C-701.18869019 1791.14044189 -701.18869019 1791.14044189 -701.18869019 1787.14044189 C-701.84869019 1787.14044189 -702.50869019 1787.14044189 -703.18869019 1787.14044189 C-707.7307987 1766.37021753 -709.33692792 1745.92881963 -709.26290894 1724.67950439 C-709.26011222 1723.12404906 -709.25742597 1721.56859352 -709.25483704 1720.01313782 C-709.21077385 1700.39910092 -709.02176833 1680.78550294 -708.8513155 1661.17225838 C-708.71992754 1646.04972819 -708.59668246 1630.92713716 -708.47775269 1615.80450439 C-708.47190084 1615.06091651 -708.466049 1614.31732863 -708.46001983 1613.55120778 C-708.1427046 1573.13059673 -707.90434607 1532.70950611 -707.67630202 1492.28830665 C-707.63796478 1485.50145501 -707.59872475 1478.71460902 -707.55908203 1471.92776489 C-707.29921673 1427.3315128 -707.11162882 1382.73755514 -707.18869019 1338.14044189 C-707.80606552 1337.8690036 -708.42344086 1337.59756531 -709.05952454 1337.31790161 C-709.86970535 1336.96011627 -710.67988617 1336.60233093 -711.51461792 1336.23370361 C-712.31761826 1335.87976532 -713.12061859 1335.52582703 -713.94795227 1335.16116333 C-726.38354032 1329.49639049 -739.00118546 1320.14240137 -747.18869019 1309.14044189 C-747.18869019 1308.48044189 -747.18869019 1307.82044189 -747.18869019 1307.14044189 C-748.17869019 1306.81044189 -749.16869019 1306.48044189 -750.18869019 1306.14044189 C-752.01290894 1303.70684814 -752.01290894 1303.70684814 -753.87619019 1300.70294189 C-754.49880737 1299.71423096 -755.12142456 1298.72552002 -755.76290894 1297.70684814 C-757.18869019 1295.14044189 -757.18869019 1295.14044189 -757.18869019 1293.14044189 C-757.84869019 1293.14044189 -758.50869019 1293.14044189 -759.18869019 1293.14044189 C-760.36023312 1290.85115137 -761.52607092 1288.55925828 -762.68869019 1286.26544189 C-763.02255737 1285.61446533 -763.35642456 1284.96348877 -763.70040894 1284.29278564 C-766.18869019 1279.36700439 -766.18869019 1279.36700439 -766.18869019 1277.14044189 C-766.84869019 1277.14044189 -767.50869019 1277.14044189 -768.18869019 1277.14044189 C-775.65120494 1255.77828133 -775.65120494 1255.77828133 -775.18869019 1245.14044189 C-775.84869019 1245.14044189 -776.50869019 1245.14044189 -777.18869019 1245.14044189 C-778.20709929 1237.58545999 -778.3287037 1230.17136895 -778.31453133 1222.55422401 C-778.31557573 1221.18101518 -778.31705792 1219.80780663 -778.31893569 1218.43459868 C-778.32282437 1214.66370917 -778.32050257 1210.89284531 -778.31715774 1207.12195622 C-778.31461933 1203.01844769 -778.31788164 1198.91494307 -778.32040107 1194.8114351 C-778.32401284 1187.62026381 -778.32390313 1180.42910003 -778.32135391 1173.23792839 C-778.3175734 1162.5443382 -778.31950416 1151.85075435 -778.32256222 1141.1571642 C-778.32783049 1122.05850192 -778.32737053 1102.95984298 -778.32448331 1083.86118038 C-778.32196885 1067.14648089 -778.32131053 1050.43178262 -778.32250595 1033.71708298 C-778.32258234 1032.60883424 -778.32265872 1031.50058549 -778.32273742 1030.35875346 C-778.32304875 1025.86011414 -778.32336715 1021.36147482 -778.32369718 1016.8628355 C-778.3267571 974.65032171 -778.32398135 932.43781005 -778.31860029 890.22529658 C-778.31385524 852.71686732 -778.31427866 815.20844144 -778.31906128 777.70001221 C-778.32441544 735.56826741 -778.32653944 693.4365245 -778.32344902 651.30477941 C-778.32312829 646.81366372 -778.32281545 642.32254803 -778.32250595 637.83143234 C-778.32242687 636.72558896 -778.3223478 635.61974559 -778.32226632 634.4803918 C-778.32112859 617.77703381 -778.32245962 601.07367717 -778.3249855 584.37031937 C-778.32784329 565.37732329 -778.3271331 546.38433109 -778.32170476 527.3913355 C-778.31876656 516.76013666 -778.31857957 506.1289462 -778.32235093 495.49774757 C-778.324592 488.3975673 -778.32320011 481.29739374 -778.31884617 474.19721447 C-778.31646609 470.15109147 -778.3156568 466.10498512 -778.31925215 462.05886264 C-778.32249246 458.37472014 -778.32109558 454.69060899 -778.31607149 451.00646876 C-778.31459649 449.06415254 -778.31799842 447.12183447 -778.32162577 445.17952108 C-778.306508 438.11083793 -777.9731103 431.16665482 -777.18869019 424.14044189 C-776.52869019 424.14044189 -775.86869019 424.14044189 -775.18869019 424.14044189 C-775.23767456 423.06923096 -775.28665894 421.99802002 -775.33712769 420.89434814 C-775.33459317 415.13719752 -774.04213311 409.67839937 -772.81369019 404.07794189 C-772.59197144 403.02800049 -772.37025269 401.97805908 -772.14181519 400.89630127 C-771.00436297 395.58038489 -769.76779518 390.34263358 -768.18869019 385.14044189 C-767.52869019 385.14044189 -766.86869019 385.14044189 -766.18869019 385.14044189 C-766.02433472 383.86620361 -766.02433472 383.86620361 -765.85665894 382.56622314 C-764.1423214 373.77397741 -759.74015759 365.36934609 -754.57931519 358.11700439 C-752.5566104 355.24203635 -750.88923991 352.21451254 -749.18869019 349.14044189 C-748.52869019 349.14044189 -747.86869019 349.14044189 -747.18869019 349.14044189 C-746.97083862 348.44177002 -746.75298706 347.74309814 -746.52853394 347.02325439 C-744.85705305 343.42689028 -742.45955484 340.84739555 -739.75119019 338.01544189 C-739.2607019 337.49079346 -738.77021362 336.96614502 -738.26486206 336.42559814 C-736.91617769 334.98772952 -735.55297617 333.56351584 -734.18869019 332.14044189 C-733.62021362 331.52427002 -733.05173706 330.90809814 -732.46603394 330.27325439 C-731.18869019 329.14044189 -731.18869019 329.14044189 -729.18869019 329.14044189 C-729.18869019 328.48044189 -729.18869019 327.82044189 -729.18869019 327.14044189 C-727.40839299 325.79631751 -725.56135271 324.5400737 -723.68869019 323.32794189 C-722.59298706 322.61637939 -721.49728394 321.90481689 -720.36837769 321.17169189 C-719.31908081 320.50137939 -718.26978394 319.83106689 -717.18869019 319.14044189 C-716.40751831 318.63512939 -715.62634644 318.12981689 -714.82150269 317.60919189 C-704.68449811 311.14044189 -704.68449811 311.14044189 -700.18869019 311.14044189 C-700.18869019 310.48044189 -700.18869019 309.82044189 -700.18869019 309.14044189 C-697.21415607 308.14681417 -694.23338203 307.17332003 -691.25119019 306.20294189 C-690.4203894 305.92514893 -689.58958862 305.64735596 -688.73361206 305.36114502 C-683.18155001 303.56806662 -678.00710431 302.60427107 -672.18869019 302.14044189 C-672.18869019 301.48044189 -672.18869019 300.82044189 -672.18869019 300.14044189 C-669.98120651 299.82199537 -667.77263164 299.51111397 -665.56369019 299.20294189 C-664.33392456 299.02891846 -663.10415894 298.85489502 -661.83712769 298.67559814 C-649.68954072 297.17810698 -637.59757799 296.99826016 -625.38131714 297.02864075 C-623.62942961 297.02933243 -621.87754188 297.02961344 -620.12565422 297.02952135 C-615.37184868 297.03068661 -610.61807459 297.03840923 -605.86427855 297.04756634 C-601.79438001 297.05466072 -597.72448119 297.05809407 -593.65457827 297.0616576 C-546.90504935 297.10399226 -500.15584802 297.30167576 -453.40682602 297.51136851 C-446.26027396 297.54338838 -439.11371888 297.57469387 -431.96716309 297.60586739 C-408.22297929 297.70953388 -384.47880436 297.81498383 -360.73463857 297.92269557 C-358.84597615 297.93126247 -358.84597615 297.93126247 -356.91915894 297.94000244 C-355.02811398 297.94858082 -355.02811398 297.94858082 -353.09886611 297.9573325 C-332.44581841 298.0509016 -311.79275353 298.13985713 -291.13967741 298.22689991 C-269.74329569 298.31713296 -248.34693188 298.41089128 -226.95058155 298.50828749 C-215.01094711 298.56256116 -203.07131044 298.61538142 -191.13165283 298.66431999 C-181.0346786 298.70572722 -170.93772528 298.75038175 -160.84078443 298.7992801 C-155.7025887 298.82406968 -150.56439813 298.84734657 -145.42617798 298.8664856 C-140.72171926 298.88404639 -136.01730194 298.90600777 -131.3128792 298.9314074 C-129.61691468 298.93980339 -127.9209414 298.94661966 -126.22496355 298.95164906 C-117.1708224 298.9794346 -108.20374427 299.18968207 -99.18869019 300.14044189 C-99.51869019 299.15044189 -99.84869019 298.16044189 -100.18869019 297.14044189 C-100.2880392 295.77258284 -100.33473177 294.40050667 -100.34690857 293.02909851 C-100.35669802 292.18869019 -100.36648746 291.34828186 -100.37657356 290.48240662 C-100.38520581 289.09774956 -100.38520581 289.09774956 -100.39401245 287.68511963 C-100.40390638 286.70485809 -100.41380032 285.72459656 -100.42399406 284.71463013 C-100.45588482 281.41779032 -100.48058339 278.12093801 -100.50509644 274.82403564 C-100.52586546 272.47003404 -100.54695547 270.11603524 -100.56834412 267.76203918 C-100.62473814 261.36713242 -100.67404731 254.97218952 -100.72132111 248.57720947 C-100.75110821 244.58891766 -100.78252025 240.60064163 -100.81436157 236.61236572 C-101.12845619 197.04406813 -101.29458372 157.47622723 -101.31162643 117.9066658 C-101.31369042 114.14001506 -101.31744928 110.37336902 -101.3215332 106.60671997 C-101.32735996 100.6933757 -101.32756298 94.7800578 -101.32307243 88.86671257 C-101.3220388 86.70116123 -101.32258415 84.53560848 -101.32483101 82.37005806 C-101.32737688 79.41719038 -101.32360224 76.46439775 -101.31808472 73.51153564 C-101.32112531 72.23034426 -101.32112531 72.23034426 -101.32422733 70.92327023 C-101.30757787 66.22453338 -100.97103236 61.77537883 -100.18869019 57.14044189 C-99.52869019 57.14044189 -98.86869019 57.14044189 -98.18869019 57.14044189 C-98.12681519 55.92356689 -98.06494019 54.70669189 -98.00119019 53.45294189 C-97.04053613 44.79333173 -93.7681013 36.78778717 -88.18869019 30.14044189 C-87.27929222 28.69052851 -86.38292075 27.23234499 -85.50119019 25.76544189 C-82.26151527 20.81893058 -78.20191253 17.25866619 -73.18869019 14.14044189 C-72.52869019 14.14044189 -71.86869019 14.14044189 -71.18869019 14.14044189 C-71.18869019 13.48044189 -71.18869019 12.82044189 -71.18869019 12.14044189 C-69.62749597 11.34620328 -68.06467055 10.55517066 -66.50119019 9.76544189 C-65.631073 9.32458252 -64.76095581 8.88372314 -63.86447144 8.42950439 C-59.6704129 6.40900904 -56.91240105 5.14044189 -52.18869019 5.14044189 C-52.18869019 4.48044189 -52.18869019 3.82044189 -52.18869019 3.14044189 C-35.05133204 -0.59927821 -17.44110168 -0.00714167 0 0 Z M55.00662231 153.81231689 C54.47681763 154.84098877 54.47681763 154.84098877 53.93630981 155.89044189 C53.55345825 156.61231689 53.17060669 157.33419189 52.77615356 158.07794189 C52.45775513 158.75856689 52.13935669 159.43919189 51.81130981 160.14044189 C51.37818481 161.04794189 50.94505981 161.95544189 50.49880981 162.89044189 C49.61649746 165.3858944 49.61649746 165.3858944 49.81130981 169.14044189 C49.15130981 169.14044189 48.49130981 169.14044189 47.81130981 169.14044189 C45.82746648 178.81807493 45.38993298 188.35314469 45.17849731 198.18731689 C45.13711307 199.84555539 45.09511639 201.5037787 45.05255127 203.1619873 C44.96504352 206.64151813 44.88326258 210.12111938 44.80593872 213.60089111 C44.70962898 217.92617345 44.60200237 222.25106869 44.48998833 226.5759697 C44.40191265 230.01396524 44.31915981 233.45207553 44.23779678 236.8902359 C44.19994853 238.47603531 44.1609876 240.06180883 44.12057114 241.64754486 C43.63285749 261.14599062 43.81130981 280.63056448 43.81130981 300.14044189 C199.90130981 300.14044189 355.99130981 300.14044189 516.81130981 300.14044189 C516.87326602 269.14933481 516.87326602 269.14933481 516.40896606 238.17559814 C516.36622057 236.37103472 516.32378527 234.56646394 516.28163147 232.7618866 C516.19469756 229.08403559 516.10458559 225.40628327 516.01174927 221.72857666 C515.89362292 217.04046989 515.78360523 212.35221035 515.67574406 207.66385746 C515.59028581 203.98252654 515.50101209 200.30129585 515.41055107 196.62008476 C515.36839447 194.88870316 515.32732423 193.1572947 515.28743172 191.42585945 C515.01107951 179.25221929 515.01107951 179.25221929 513.81130981 167.14044189 C513.15130981 167.14044189 512.49130981 167.14044189 511.81130981 167.14044189 C511.70818481 166.41341064 511.60505981 165.68637939 511.49880981 164.93731689 C510.74405041 161.86681842 509.61344446 159.97234634 507.81130981 157.39044189 C507.00693481 156.22255127 507.00693481 156.22255127 506.18630981 155.03106689 C504.56427994 152.58120811 504.56427994 152.58120811 501.92325324 151.82849991 C493.04766645 150.99371587 484.19801488 151.00077708 475.29380798 151.01345825 C473.52460103 151.01230467 471.75539433 151.01071555 469.98618811 151.00873101 C465.14660574 151.00457045 460.30704318 151.00661354 455.46746075 151.00971723 C450.23977535 151.01198441 445.0120933 151.00848518 439.78440857 151.0057373 C429.55291339 151.00129503 419.32142556 151.00224915 409.08993009 151.00514995 C400.77504258 151.00740966 392.46015713 151.00771403 384.14526939 151.00662613 C382.96121496 151.0064729 381.77716052 151.00631966 380.55722564 151.00616179 C378.15177236 151.00584206 375.74631909 151.00551784 373.34086581 151.0051892 C350.79593336 151.00233902 328.25100497 151.00561438 305.70607319 151.01098956 C286.36134859 151.01545892 267.01663 151.01467969 247.67190552 151.0100708 C225.20218564 151.00471988 202.73246932 151.00261184 180.2627489 151.00568306 C177.86713358 151.00600161 175.47151826 151.00631598 173.07590294 151.00662613 C171.30789999 151.00685754 171.30789999 151.00685754 169.50417981 151.00709363 C161.19771479 151.0079571 152.89125204 151.00649959 144.58478737 151.00414658 C134.4645237 151.00134273 124.3442678 151.00209931 114.22400502 151.00742732 C109.06052873 151.01005613 103.89706537 151.01108321 98.73358917 151.00777817 C94.00700349 151.0047985 89.28044274 151.00643595 84.55385932 151.01175572 C82.84409771 151.01287273 81.134334 151.01230457 79.42457376 151.00987993 C77.09941951 151.00683551 74.77435046 151.00996219 72.44920063 151.01460075 C70.51245786 151.01484428 70.51245786 151.01484428 68.53658897 151.01509273 C61.23761964 150.91529329 61.23761964 150.91529329 55.00662231 153.81231689 Z " fill="#DF7815" transform="translate(778.1886901855469,-0.14044189453125)"/>
<path d="M0 0 C1.10279297 -0.01224609 2.20558594 -0.02449219 3.34179688 -0.03710938 C10.47124201 -0.04972786 17.10529923 0.64451686 24.0625 2.1875 C24.98554932 2.38851318 25.90859863 2.58952637 26.85961914 2.79663086 C47.42044212 7.52424317 60.55649149 21.67977478 73.0859375 37.7890625 C75.13045302 40.26995683 77.33086703 42.37926477 79.6875 44.5625 C84.87518717 49.59519475 88.21990899 55.58830157 91.0625 62.1875 C91.0625 63.1775 91.0625 64.1675 91.0625 65.1875 C91.7225 65.1875 92.3825 65.1875 93.0625 65.1875 C95.76783406 71.91937777 97.58682875 77.93351342 98.0625 85.1875 C98.7225 85.1875 99.3825 85.1875 100.0625 85.1875 C100.91089375 88.86539639 101.18618591 92.25668203 101.18275452 96.02778625 C101.18412918 97.19581284 101.18550385 98.36383942 101.18692017 99.56726074 C101.18332489 100.83968628 101.17972961 102.11211182 101.17602539 103.4230957 C101.17574316 104.78342181 101.17590195 106.14374808 101.1764679 107.5040741 C101.17675448 111.18962428 101.17088016 114.87514183 101.16389394 118.56068444 C101.15763732 122.41506296 101.15705477 126.26944226 101.15586853 130.12382507 C101.15276202 137.41935503 101.1445578 144.71486997 101.13451904 152.01039332 C101.12333678 160.31748337 101.11784213 168.62457413 101.11282361 176.93166983 C101.10237463 194.01695523 101.08478835 211.10222603 101.0625 228.1875 C102.10140381 228.13280548 103.14030762 228.07811096 104.21069336 228.02175903 C127.4902216 226.80186686 150.76195069 225.77350194 174.0625 225.0625 C176.81903438 224.97601278 179.57553281 224.88840536 182.33203125 224.80078125 C188.90874047 224.59253427 195.48557046 224.38866297 202.0625 224.1875 C202.0625 220.8875 202.0625 217.5875 202.0625 214.1875 C220.23131568 212.13913673 238.42286636 210.34932784 256.625 208.625 C257.79354523 208.51428162 258.96209045 208.40356323 260.16604614 208.28948975 C273.68037167 207.01394674 287.18563304 205.82091192 300.73071289 204.92333984 C308.63848514 204.36847559 316.48925981 203.46606417 324.35665894 202.51586914 C338.09418754 200.86009032 351.81950284 199.56567501 365.625 198.625 C366.9584848 198.53398514 366.9584848 198.53398514 368.31890869 198.44113159 C378.98587406 197.72142552 389.65660143 197.09126583 400.33203125 196.51171875 C423.63920633 195.23390239 446.75417078 193.44015033 469.93673706 190.70021057 C470.83417633 190.59418015 471.7316156 190.48814972 472.65625 190.37890625 C473.54071808 190.27420517 474.42518616 190.16950409 475.3364563 190.06163025 C483.89728981 189.06242798 492.47306421 188.32647657 501.0625 187.625 C512.2052928 186.70487141 523.24717843 185.42665183 534.31152344 183.81054688 C545.78464438 182.16041008 557.29081289 180.88343756 568.8125 179.625 C569.78957916 179.51805817 570.76665833 179.41111633 571.77334595 179.30093384 C575.60268834 178.88184878 579.43205747 178.4630111 583.26152039 178.04502869 C590.69946418 177.23168776 598.1329664 176.38734483 605.5625 175.5 C606.47225586 175.39292725 607.38201172 175.28585449 608.31933594 175.17553711 C612.89764916 174.62290757 617.44416623 173.97009846 621.99609375 173.23046875 C630.83377927 171.85181057 639.7242501 171.03802609 648.625 170.1875 C649.52579285 170.10001495 650.42658569 170.01252991 651.35467529 169.9223938 C663.61295615 168.73278133 675.8675827 167.64442822 688.16625977 166.95898438 C693.96370694 166.60400942 699.67362551 165.98337553 705.42164612 165.1714325 C716.04583757 163.68081709 726.6551742 162.68411038 737.35546875 161.9765625 C738.07115021 161.92915672 738.78683167 161.88175095 739.52420044 161.83290863 C743.23490503 161.58854484 746.94588737 161.34867225 750.65698242 161.11032104 C773.59110626 159.63127966 796.35308916 157.9258107 819.07421875 154.3828125 C834.31667398 152.01069942 849.71313064 150.67538265 865.0625 149.1875 C866.23748047 149.07277344 867.41246094 148.95804688 868.62304688 148.83984375 C877.82642667 147.95371699 887.00333489 147.19662835 896.24389648 146.85131836 C913.1082681 146.21697464 928.83799918 142.68591171 945.17749023 138.59887695 C947.0625 138.1875 947.0625 138.1875 949.0625 138.1875 C949.0625 137.5275 949.0625 136.8675 949.0625 136.1875 C952.76855005 135.34378795 956.47766381 134.5143912 960.1875 133.6875 C961.23421875 133.44902344 962.2809375 133.21054688 963.359375 132.96484375 C964.88691406 132.62646484 964.88691406 132.62646484 966.4453125 132.28125 C967.37746582 132.07177734 968.30961914 131.86230469 969.27001953 131.64648438 C972.26141401 131.15480562 975.03618583 131.04144342 978.0625 131.1875 C979.61267801 132.73767801 979.22158977 134.21964731 979.2598877 136.38006592 C979.27823669 137.29285561 979.29658569 138.20564529 979.31549072 139.14609528 C979.33061707 140.16361626 979.34574341 141.18113724 979.36132812 142.22949219 C979.39048309 143.84375217 979.39048309 143.84375217 979.42022705 145.49062347 C979.48396763 149.15513467 979.53931601 152.8197143 979.59375 156.484375 C979.6142894 157.77452263 979.6348288 159.06467026 979.6559906 160.39391327 C980.22050545 195.8684223 980.35560988 231.34710753 980.52161425 266.82522589 C980.60023282 283.56064728 980.68945554 300.29601747 980.77719307 317.03139305 C980.79816577 321.03412989 980.81896498 325.03686757 980.83961296 329.03960609 C980.9833458 356.87946418 981.15000095 384.71906557 981.34765625 412.55859375 C981.35353052 413.3874419 981.35940478 414.21629004 981.36545706 415.0702548 C981.47665208 430.7439168 981.59138133 446.41755194 981.70896983 462.09116721 C982.1018557 514.48114992 982.1018557 514.48114992 982.11328125 532.29296875 C982.11477676 533.47638351 982.11627228 534.65979828 982.11781311 535.8790741 C982.09936601 554.07565094 982.00278162 572.54363709 977.0625 590.1875 C976.4025 590.1875 975.7425 590.1875 975.0625 590.1875 C974.89041016 591.2703125 974.89041016 591.2703125 974.71484375 592.375 C970.75868539 609.43149112 952.7167508 627.79487822 938.4453125 636.84765625 C931.72797927 640.96567358 931.72797927 640.96567358 928.0625 642.1875 C927.46115234 642.868125 927.46115234 642.868125 926.84765625 643.5625 C924.14875526 646.01926764 920.88345065 646.97889995 917.5 648.1875 C916.83419922 648.435 916.16839844 648.6825 915.48242188 648.9375 C913.35171382 649.71747321 911.21017758 650.4555343 909.0625 651.1875 C908.33391769 651.43881526 907.60533539 651.69013051 906.85467483 651.94906138 C900.40934092 654.03729348 894.24280314 654.89849937 887.49871117 655.35864294 C886.41128576 655.43838563 885.32386035 655.51812833 884.20348265 655.60028747 C872.49690005 656.39482903 860.81164508 656.46971443 849.0831213 656.44921303 C846.66144565 656.45240972 844.23977101 656.45647666 841.8180981 656.46132231 C836.58325324 656.46982862 831.34844308 656.47230388 826.11359375 656.46922119 C818.27293739 656.46464464 810.43231944 656.47174741 802.59166867 656.48095289 C789.21260851 656.49633071 775.83355897 656.5023975 762.45449066 656.50328636 C748.90152271 656.50422541 735.34856677 656.50954225 721.7956028 656.52011681 C720.50765342 656.52111779 720.50765342 656.52111779 719.19368487 656.522139 C714.81397864 656.52556261 710.43427247 656.52905621 706.05456632 656.5325741 C674.35210392 656.55789196 642.6496426 656.57358452 610.94717216 656.58415604 C579.37551967 656.59471101 547.80387337 656.60938495 516.23222542 656.62943649 C515.2466947 656.63006048 514.26116397 656.63068446 513.24576868 656.63132735 C504.23831703 656.63703182 495.23086541 656.64278391 486.22341382 656.64859388 C463.81128401 656.6630482 441.39915383 656.6768626 418.98702335 656.69023705 C417.96591629 656.69084687 416.94480923 656.69145669 415.89275953 656.69208498 C366.18884396 656.72171153 316.48492543 656.74394646 266.78100586 656.765625 C199.45262882 656.79500345 132.1242561 656.82849382 64.79588434 656.86824883 C61.63248692 656.87011666 58.46908951 656.87198231 55.30569209 656.8738475 C37.44676479 656.88438003 19.58783752 656.89495304 1.72891027 656.90558032 C-98.20480049 656.96504485 -198.13851354 657.02139528 -323.45963988 657.08493304 C-326.26179201 657.0863331 -329.06394413 657.08773699 -331.86609626 657.08914138 C-372.53134459 657.10949893 -413.19659257 657.12806206 -453.86184409 657.14071758 C-457.35036898 657.14180592 -460.83889387 657.14291018 -464.32741876 657.14401476 C-468.66858155 657.14538902 -473.00974435 657.14675679 -477.35090715 657.14812481 C-478.20785706 657.14839508 -479.06480697 657.14866534 -479.94772505 657.1489438 C-488.5475258 657.15165402 -497.14732655 657.15434501 -505.74712734 657.15689709 C-548.13126624 657.16950375 -590.5153694 657.19383754 -632.8994893 657.23636401 C-636.41507437 657.23988486 -639.93065945 657.24339522 -643.44624454 657.24689496 C-644.74790946 657.24819213 -644.74790946 657.24819213 -646.07587063 657.24951552 C-658.98327656 657.26230652 -671.89068283 657.27301217 -684.79809207 657.28183639 C-685.63217239 657.2824082 -686.46625272 657.28298001 -687.3256082 657.28356915 C-695.630224 657.28922755 -703.93483995 657.29458956 -712.23945619 657.29955495 C-716.30578743 657.30199931 -720.3721186 657.30453669 -724.43844974 657.30713725 C-725.6350687 657.30790142 -725.6350687 657.30790142 -726.85586179 657.30868102 C-739.44030271 657.31693051 -752.02472551 657.33207947 -764.60915564 657.35024005 C-777.02985165 657.36804155 -789.45053688 657.37862927 -801.87124539 657.38185584 C-808.52370592 657.38379296 -815.17612982 657.38912323 -821.82857864 657.40347287 C-885.86237916 657.53639183 -885.86237916 657.53639183 -911.9375 653.1875 C-911.9375 652.5275 -911.9375 651.8675 -911.9375 651.1875 C-913.85369141 651.03474609 -913.85369141 651.03474609 -915.80859375 650.87890625 C-921.11631855 650.28915905 -925.95094296 648.81324172 -931 647.125 C-931.86560547 646.84333984 -932.73121094 646.56167969 -933.62304688 646.27148438 C-935.73052719 645.58451565 -937.8350895 644.88979934 -939.9375 644.1875 C-939.9375 643.5275 -939.9375 642.8675 -939.9375 642.1875 C-940.79472656 642.08695313 -941.65195312 641.98640625 -942.53515625 641.8828125 C-953.72208747 639.5966199 -962.23820919 632.25469518 -968.875 623.375 C-970.9375 620.1875 -970.9375 620.1875 -970.9375 618.1875 C-971.5975 618.1875 -972.2575 618.1875 -972.9375 618.1875 C-974.10926518 616.06517021 -975.27504785 613.93992209 -976.4375 611.8125 C-976.93830078 610.90757812 -976.93830078 610.90757812 -977.44921875 609.984375 C-979.9375 605.4140625 -979.9375 605.4140625 -979.9375 603.1875 C-980.5975 603.1875 -981.2575 603.1875 -981.9375 603.1875 C-983.1148496 600.10814034 -984.27747891 597.02342484 -985.4375 593.9375 C-985.77136719 593.06480469 -986.10523438 592.19210937 -986.44921875 591.29296875 C-986.76503906 590.44863281 -987.08085938 589.60429688 -987.40625 588.734375 C-987.69951172 587.95932617 -987.99277344 587.18427734 -988.29492188 586.38574219 C-988.9375 584.1875 -988.9375 584.1875 -988.9375 580.1875 C-989.5975 580.1875 -990.2575 580.1875 -990.9375 580.1875 C-995.47960851 559.41727564 -997.08573774 538.97587774 -997.01171875 517.7265625 C-997.00892204 516.17110716 -997.00623579 514.61565162 -997.00364685 513.06019592 C-996.95673766 492.17930368 -996.7488409 471.29886475 -996.56738281 450.41882324 C-996.44719735 436.56441442 -996.3327018 422.70996163 -996.22265625 408.85546875 C-996.2167417 408.11194357 -996.21082715 407.3684184 -996.20473337 406.60236216 C-995.99458754 380.1003789 -995.83694012 353.5982371 -995.69912982 327.09578633 C-995.68358579 324.11175372 -995.66790997 321.12772182 -995.65219307 318.14369011 C-995.55876731 300.39560676 -995.4657093 282.6475221 -995.3833313 264.89938354 C-995.33181091 253.81311293 -995.27756028 242.7268595 -995.21875 231.640625 C-995.21176185 230.31923897 -995.21176185 230.31923897 -995.20463252 228.97115827 C-995.03179214 196.70453407 -994.6073939 164.44780272 -993.9375 132.1875 C-990.61985146 131.26623281 -988.45607142 131.25625482 -985.05859375 131.9296875 C-984.13755859 132.10886719 -983.21652344 132.28804687 -982.26757812 132.47265625 C-980.83575195 132.76462891 -980.83575195 132.76462891 -979.375 133.0625 C-978.41658203 133.24941406 -977.45816406 133.43632813 -976.47070312 133.62890625 C-972.87867813 134.33875282 -969.41452005 135.02849332 -965.9375 136.1875 C-965.9375 136.8475 -965.9375 137.5075 -965.9375 138.1875 C-963.88777771 138.64692051 -961.83753629 139.104079 -959.78564453 139.55371094 C-957.85083437 139.98425844 -955.91953116 140.43081362 -953.99169922 140.89160156 C-944.26370663 143.13393674 -934.61674294 144.24186263 -924.6875 145.125 C-923.7987619 145.20676483 -922.9100238 145.28852966 -921.99435425 145.37277222 C-901.36131002 147.25889163 -880.68183922 148.42205392 -860.00085831 149.62978172 C-844.42762147 150.53956286 -828.8593392 151.45314461 -813.3125 152.75 C-812.05123291 152.85256104 -810.78996582 152.95512207 -809.49047852 153.06079102 C-802.99080503 153.62656525 -796.53667161 154.3578706 -790.06889343 155.20579529 C-779.17028311 156.6294731 -768.26630699 157.75533129 -757.31640625 158.6875 C-756.59374573 158.74923338 -755.87108521 158.81096676 -755.12652588 158.87457085 C-748.40331688 159.44745986 -741.67909065 160.0079563 -734.9543457 160.5625 C-706.12078369 162.94638476 -706.12078369 162.94638476 -693.50708008 165.4375 C-687.10031497 166.58613552 -680.60545789 167.09021354 -674.12890625 167.6875 C-673.45939249 167.749375 -672.78987873 167.81125 -672.10007668 167.875 C-667.23424448 168.32221322 -662.36724731 168.75600445 -657.5 169.1875 C-651.9588632 169.67919186 -646.41825853 170.1760568 -640.87890625 170.6875 C-640.20775599 170.74939577 -639.53660572 170.81129154 -638.84511757 170.87506294 C-630.75466466 171.62948882 -622.78743679 172.58394336 -614.79928589 174.05796814 C-602.69042243 176.21922911 -590.35893555 177.07208436 -578.125 178.25 C-575.49408665 178.50791359 -572.86322686 178.76637409 -570.23242188 179.02539062 C-560.73180491 179.95799503 -551.230726 180.88512314 -541.72509766 181.76538086 C-540.30575676 181.89758278 -540.30575676 181.89758278 -538.85774231 182.03245544 C-537.15408742 182.19049654 -535.45023833 182.34646862 -533.74613953 182.49964905 C-528.11227948 183.02207464 -522.53210038 183.78451704 -516.9375 184.625 C-506.96660597 186.06733574 -496.97713993 186.90854261 -486.9375 187.6875 C-475.05165451 188.6110163 -463.1768557 189.57909682 -451.3125 190.75 C-450.11753906 190.86472656 -448.92257812 190.97945312 -447.69140625 191.09765625 C-445.99951172 191.2678125 -445.99951172 191.2678125 -444.2734375 191.44140625 C-443.30970215 191.53752197 -442.3459668 191.6336377 -441.35302734 191.73266602 C-438.4834921 192.11479212 -435.69035791 192.60969045 -432.85009766 193.15795898 C-426.59316873 194.31690317 -420.33773133 194.88760189 -414 195.40625 C-412.79867432 195.50965698 -411.59734863 195.61306396 -410.35961914 195.71960449 C-406.55264797 196.04717763 -402.74517183 196.36818116 -398.9375 196.6875 C-393.91613437 197.10860158 -388.89542595 197.53660482 -383.875 197.96875 C-382.7413501 198.06152222 -381.6077002 198.15429443 -380.43969727 198.24987793 C-375.43983299 198.68079828 -370.54634366 199.20710314 -365.62084961 200.17797852 C-359.22615404 201.40893638 -352.78699427 201.8937961 -346.30280876 202.38777351 C-342.33253989 202.69102942 -338.36390843 203.01472069 -334.39501953 203.33544922 C-333.55219768 203.4031165 -332.70937582 203.47078379 -331.84101391 203.54050159 C-316.10205878 204.81099674 -300.37965618 206.28166243 -284.65551758 207.72192383 C-279.77269955 208.16885635 -274.88935332 208.6097417 -270.00588131 209.04946232 C-266.17668008 209.39535054 -262.34789001 209.745635 -258.51919746 210.09710503 C-256.71702489 210.26178797 -254.91470401 210.42485734 -253.11222649 210.58616829 C-244.69716097 211.34060242 -236.38539928 212.12518547 -228.08836365 213.77345276 C-225.4298188 214.28523004 -222.79838537 214.5450548 -220.09765625 214.71484375 C-219.10668945 214.78300293 -218.11572266 214.85116211 -217.09472656 214.92138672 C-216.0734668 214.9885791 -215.05220703 215.05577148 -214 215.125 C-205.86552783 215.73003332 -197.76877452 216.44327488 -189.6875 217.5625 C-188.87289307 217.66425537 -188.05828613 217.76601074 -187.21899414 217.87084961 C-182.33406457 218.59406216 -179.66973967 219.76855052 -175.9375 223.1875 C-173.21635198 224.09454934 -171.26687387 224.39040124 -168.44116211 224.56054688 C-167.53269028 224.61730591 -166.62421844 224.67406494 -165.68821716 224.73254395 C-164.70700394 224.78986694 -163.72579071 224.84718994 -162.71484375 224.90625 C-161.69959122 224.96905151 -160.68433868 225.03185303 -159.63832092 225.09655762 C-156.38410071 225.29734817 -153.12958736 225.49275849 -149.875 225.6875 C-146.64545789 225.88296657 -143.41599852 226.07962741 -140.18666077 226.27844238 C-138.17770572 226.401898 -136.16862657 226.52335657 -134.15940857 226.64245605 C-128.06756435 227.01403419 -122.00555487 227.53358477 -115.9375 228.1875 C-115.97508423 226.52002464 -115.97508423 226.52002464 -116.01342773 224.81886292 C-116.25367035 214.13309838 -116.48893274 203.44723318 -116.71980286 192.76126194 C-116.83852729 187.27283364 -116.95876948 181.78444905 -117.08300781 176.29614258 C-117.41489235 161.59398952 -117.71043768 146.89167269 -117.9375 132.1875 C-117.95294861 131.19972313 -117.96839722 130.21194626 -117.98431396 129.19423676 C-118.06969166 123.53010287 -118.13385591 117.86635019 -118.16867065 112.20167351 C-118.18093732 110.50015686 -118.19820377 108.79866659 -118.22122192 107.09726143 C-118.48094555 86.88882832 -115.933746 69.10808905 -102.4375 53.25 C-100.3117029 50.64589856 -98.98735504 48.43365418 -97.4375 45.5 C-89.19435339 31.40824551 -71.29536073 21.27934563 -57.125 14.1875 C-56.45146484 13.84460937 -55.77792969 13.50171875 -55.08398438 13.1484375 C-43.19623688 7.1875 -43.19623688 7.1875 -37.9375 7.1875 C-37.9375 6.5275 -37.9375 5.8675 -37.9375 5.1875 C-35.64838306 4.53128648 -33.35682193 3.88755677 -31.0625 3.25 C-30.43085937 3.06759766 -29.79921875 2.88519531 -29.1484375 2.69726562 C-19.57186187 0.06370733 -9.87534882 0.00575151 0 0 Z " fill="#BB6014" transform="translate(1065.9375,1206.8125)"/>
<path d="M0 0 C2.5418579 -0.00258763 5.08371539 -0.00560189 7.62557232 -0.0090034 C13.85121576 -0.01619025 20.07684686 -0.0187737 26.30249395 -0.01933246 C33.76759969 -0.02025139 41.23269765 -0.0269343 48.69780001 -0.03367928 C66.7293301 -0.04968399 84.76085928 -0.05563539 102.79239519 -0.06042803 C111.32891304 -0.06276862 119.86543022 -0.06637168 128.40194754 -0.07012341 C157.64865512 -0.08295141 186.89536234 -0.09367327 216.14207268 -0.09712601 C217.97536407 -0.09734764 219.80865547 -0.09756942 221.64194686 -0.09779136 C223.47952271 -0.098012 225.31709856 -0.09823248 227.15467441 -0.09845281 C230.84083804 -0.09889535 234.52700166 -0.09934246 238.21316528 -0.09979248 C239.12710854 -0.09990187 240.04105179 -0.10001126 240.9826903 -0.10012397 C270.62707136 -0.10375579 300.27142798 -0.11968443 329.91579968 -0.14298284 C361.2919151 -0.16759706 392.66801654 -0.18129949 424.04414189 -0.18249393 C427.49023446 -0.18266537 430.93632702 -0.18288079 434.38241959 -0.18312836 C435.23088266 -0.18318413 436.07934574 -0.18323989 436.95351982 -0.18329735 C450.58416984 -0.1844461 464.21479467 -0.19545251 477.8454362 -0.21001541 C491.55066222 -0.22440465 505.25585607 -0.22760361 518.96108757 -0.21957543 C527.09360048 -0.2151314 535.2260093 -0.21893064 543.35850846 -0.23481394 C549.44369716 -0.24576378 555.5287681 -0.24088515 561.61396135 -0.23004207 C564.06600928 -0.22808857 566.51806774 -0.23114733 568.97010086 -0.23988643 C586.17384476 -0.29729188 602.89872106 -0.09485283 618.81130981 7.14044189 C621.1815226 8.06941667 623.55676031 8.98565078 625.93630981 9.89044189 C627.610802 10.53239502 627.610802 10.53239502 629.31912231 11.18731689 C630.14154419 11.50184814 630.96396606 11.81637939 631.81130981 12.14044189 C631.81130981 12.80044189 631.81130981 13.46044189 631.81130981 14.14044189 C632.57443481 14.40856689 633.33755981 14.67669189 634.12380981 14.95294189 C636.70119599 16.09178695 638.08085846 16.9546086 639.81130981 19.14044189 C639.81130981 19.80044189 639.81130981 20.46044189 639.81130981 21.14044189 C640.47130981 21.14044189 641.13130981 21.14044189 641.81130981 21.14044189 C641.81130981 21.80044189 641.81130981 22.46044189 641.81130981 23.14044189 C642.47130981 23.14044189 643.13130981 23.14044189 643.81130981 23.14044189 C645.53787231 25.47637939 645.53787231 25.47637939 647.43630981 28.51544189 C648.06795044 29.51317627 648.69959106 30.51091064 649.35037231 31.53887939 C650.81130981 34.14044189 650.81130981 34.14044189 650.81130981 36.14044189 C651.47130981 36.14044189 652.13130981 36.14044189 652.81130981 36.14044189 C653.61851299 38.05061735 654.40604821 39.96910407 655.18630981 41.89044189 C655.62716919 42.95778564 656.06802856 44.02512939 656.52224731 45.12481689 C660.71307116 57.17991516 660.09084514 69.91464353 660.05422974 82.48834229 C660.05530424 84.63659727 660.05724541 86.78485196 660.0599823 88.93310547 C660.06480898 94.74136552 660.05720034 100.54954812 660.04702926 106.35779881 C660.03820317 112.46010443 660.04000715 118.56240793 660.04039001 124.66471863 C660.0394548 134.91762576 660.03079323 145.17050323 660.01712036 155.42340088 C660.0014258 167.23504703 659.99612138 179.04666065 659.99685591 190.85831648 C659.99753466 203.4823614 659.99057215 216.10639397 659.98140931 228.73043513 C659.97928998 232.34364225 659.97856975 235.95684733 659.97817039 239.57005501 C659.97715608 245.27878101 659.97097192 250.98748035 659.96100426 256.69619751 C659.95811535 258.77648696 659.95684643 260.85677948 659.95743179 262.93707085 C659.95966248 275.70539656 659.61827252 288.39672342 658.81130981 301.14044189 C640.444466 301.16376993 622.07762602 301.1814206 603.71077061 301.19225407 C595.18332487 301.19741723 586.65588833 301.2044603 578.12844849 301.21588135 C570.69864726 301.22582758 563.26885269 301.23229518 555.83904499 301.23453039 C551.90257662 301.2358376 547.96612728 301.23892411 544.02966499 301.24617195 C540.32877654 301.25293121 536.62791507 301.25505905 532.92702103 301.25354958 C530.9126018 301.25395828 528.89818554 301.25935397 526.8837738 301.26486206 C525.69600342 301.2634874 524.50823303 301.26211273 523.2844696 301.26069641 C522.24560891 301.2616182 521.20674822 301.26254 520.1364069 301.26348972 C517.81130981 301.14044189 517.81130981 301.14044189 516.81130981 300.14044189 C516.67890587 298.55497468 516.614557 296.96377669 516.5771637 295.37322998 C516.55054657 294.34150665 516.52392944 293.30978333 516.49650574 292.24679565 C516.4720488 291.10503876 516.44759186 289.96328186 516.4223938 288.78692627 C516.39298706 287.59179413 516.36358032 286.39666199 516.33328247 285.16531372 C516.25333681 281.87568082 516.17775461 278.58600145 516.1041286 275.29622459 C516.02607625 271.85167956 515.94268445 268.40726377 515.85990906 264.96282959 C515.72142961 259.16891564 515.58654524 253.37492721 515.45413208 247.58087158 C515.26792727 239.43353103 515.07492687 231.28636177 514.88071334 223.13920879 C514.74608233 217.48006309 514.61317453 211.82087671 514.48053479 206.16168404 C514.44846731 204.79420913 514.41634429 203.42673552 514.38416553 202.05926323 C514.27807943 197.54925024 514.17398111 193.03919479 514.0708313 188.52911377 C514.03110954 186.8407692 514.03110954 186.8407692 513.99058533 185.11831665 C513.85527533 179.12373436 513.78520539 173.13655145 513.81130981 167.14044189 C513.15130981 167.14044189 512.49130981 167.14044189 511.81130981 167.14044189 C511.485177 166.46497314 511.15904419 165.78950439 510.82302856 165.09356689 C510.16754028 163.75552002 510.16754028 163.75552002 509.49880981 162.39044189 C509.069552 161.50872314 508.64029419 160.62700439 508.19802856 159.71856689 C506.86967732 157.24895612 505.68866483 155.22191479 503.81130981 153.14044189 C501.68674331 152.43847685 501.68674331 152.43847685 499.21865368 152.39837837 C498.23203633 152.34310927 497.24541898 152.28784016 496.22890413 152.23089623 C489.24856591 152.04614584 482.27599632 152.00351438 475.29380798 152.01345825 C473.52460103 152.01230467 471.75539433 152.01071555 469.98618811 152.00873101 C465.14660574 152.00457045 460.30704318 152.00661354 455.46746075 152.00971723 C450.23977535 152.01198441 445.0120933 152.00848518 439.78440857 152.0057373 C429.55291339 152.00129503 419.32142556 152.00224915 409.08993009 152.00514995 C400.77504258 152.00740966 392.46015713 152.00771403 384.14526939 152.00662613 C382.96121496 152.0064729 381.77716052 152.00631966 380.55722564 152.00616179 C378.15177236 152.00584206 375.74631909 152.00551784 373.34086581 152.0051892 C350.79593336 152.00233902 328.25100497 152.00561438 305.70607319 152.01098956 C286.36134859 152.01545892 267.01663 152.01467969 247.67190552 152.0100708 C225.20218564 152.00471988 202.73246932 152.00261184 180.2627489 152.00568306 C177.86713358 152.00600161 175.47151826 152.00631598 173.07590294 152.00662613 C171.30789999 152.00685754 171.30789999 152.00685754 169.50417981 152.00709363 C161.19771479 152.0079571 152.89125204 152.00649959 144.58478737 152.00414658 C134.4645237 152.00134273 124.3442678 152.00209931 114.22400502 152.00742732 C109.06052873 152.01005613 103.89706537 152.01108321 98.73358917 152.00777817 C94.00700349 152.0047985 89.28044274 152.00643595 84.55385932 152.01175572 C82.84409771 152.01287273 81.134334 152.01230457 79.42457376 152.00987993 C77.09941951 152.00683551 74.77435046 152.00996219 72.44920063 152.01460075 C70.51245786 152.01484428 70.51245786 152.01484428 68.53658897 152.01509273 C64.51195188 152.15051477 60.77727599 152.43060969 56.81130981 153.14044189 C54.60383763 155.67402101 54.60383763 155.67402101 53.37380981 158.95294189 C52.66418091 160.54042236 52.66418091 160.54042236 51.94021606 162.15997314 C51.05524467 164.4964201 50.32493916 166.70217844 49.81130981 169.14044189 C49.15130981 169.14044189 48.49130981 169.14044189 47.81130981 169.14044189 C47.05255973 177.23445053 46.61239796 185.28428969 46.43826294 193.41070557 C46.41046249 194.57152649 46.38266205 195.73234741 46.35401917 196.92834473 C46.29464784 199.42451079 46.23687193 201.92071524 46.18055725 204.41695213 C46.09133315 208.36265667 45.99753363 212.3082379 45.9022522 216.25379944 C45.66682755 226.03819227 45.43844259 235.82274772 45.21237183 245.60736084 C45.02057331 253.90607368 44.82498907 262.20467738 44.62379456 270.50316811 C44.53087559 274.39920553 44.44358108 278.29534466 44.35635376 282.19151306 C44.29932526 284.5588554 44.24200902 286.92619084 44.18435669 289.29351807 C44.16147079 290.38380814 44.1385849 291.47409821 44.11500549 292.59742737 C44.07724754 294.07540298 44.07724754 294.07540298 44.03872681 295.58323669 C44.01882439 296.444276 43.99892197 297.3053153 43.97841644 298.19244671 C43.81130981 300.14044189 43.81130981 300.14044189 42.81130981 301.14044189 C40.98903294 301.23687968 39.16297622 301.2623156 37.33815002 301.26069641 C35.55649445 301.26275841 35.55649445 301.26275841 33.73884583 301.26486206 C32.42398697 301.26126678 31.10912811 301.25767151 29.75442505 301.25396729 C28.36513267 301.25368542 26.97584014 301.25384314 25.58654785 301.25440979 C21.80365693 301.25469778 18.02079744 301.24880091 14.23791385 301.24183583 C10.28875305 301.23560244 6.3395916 301.23499851 2.39042664 301.23381042 C-5.09294094 301.23069706 -12.57629397 301.22248361 -20.05965513 301.21246094 C-28.57704752 301.20129994 -37.09444058 301.19578938 -45.61183846 301.1907655 C-63.13746412 301.180301 -80.66307562 301.16270147 -98.18869019 301.14044189 C-99.81370265 298.27023728 -100.44208665 296.19959332 -100.46716309 292.90884399 C-100.4783272 292.067061 -100.48949131 291.22527802 -100.50099373 290.35798645 C-100.50315329 289.43847702 -100.50531284 288.51896759 -100.50753784 287.57159424 C-100.5175778 286.59118668 -100.52761776 285.61077911 -100.53796196 284.60066223 C-100.56910444 281.30924039 -100.5859844 278.01790362 -100.60275269 274.72637939 C-100.6216501 272.37380362 -100.64132166 270.02123396 -100.66171265 267.66867065 C-100.71418423 261.28200519 -100.75359171 254.89531989 -100.78998566 248.50854492 C-100.81759648 243.85741339 -100.85034321 239.20632857 -100.88361681 234.55523467 C-101.16097298 195.6730564 -101.28867099 156.79024591 -101.31118011 117.90711212 C-101.31369033 114.14022151 -101.31765103 110.37333443 -101.32180786 106.60644531 C-101.32764823 100.69317141 -101.32775618 94.77992437 -101.32313538 88.86664963 C-101.32206029 86.70112502 -101.32257859 84.53559895 -101.32481384 82.37007523 C-101.32736154 79.41720188 -101.32359318 76.46440344 -101.31808472 73.51153564 C-101.32011209 72.65740774 -101.32213947 71.80327984 -101.32422829 70.92326927 C-101.30757696 66.22453288 -100.9710323 61.77537847 -100.18869019 57.14044189 C-99.52869019 57.14044189 -98.86869019 57.14044189 -98.18869019 57.14044189 C-98.12681519 55.92356689 -98.06494019 54.70669189 -98.00119019 53.45294189 C-97.04053613 44.79333173 -93.7681013 36.78778717 -88.18869019 30.14044189 C-87.27929222 28.69052851 -86.38292075 27.23234499 -85.50119019 25.76544189 C-82.26151527 20.81893058 -78.20191253 17.25866619 -73.18869019 14.14044189 C-72.52869019 14.14044189 -71.86869019 14.14044189 -71.18869019 14.14044189 C-71.18869019 13.48044189 -71.18869019 12.82044189 -71.18869019 12.14044189 C-69.62749597 11.34620328 -68.06467055 10.55517066 -66.50119019 9.76544189 C-65.631073 9.32458252 -64.76095581 8.88372314 -63.86447144 8.42950439 C-59.6704129 6.40900904 -56.91240105 5.14044189 -52.18869019 5.14044189 C-52.18869019 4.48044189 -52.18869019 3.82044189 -52.18869019 3.14044189 C-35.05133204 -0.59927821 -17.44110168 -0.00714167 0 0 Z " fill="#87450D" transform="translate(778.1886901855469,-0.14044189453125)"/>
<path d="M0 0 C1.10279297 -0.01224609 2.20558594 -0.02449219 3.34179688 -0.03710938 C10.47124201 -0.04972786 17.10529923 0.64451686 24.0625 2.1875 C24.98554932 2.38851318 25.90859863 2.58952637 26.85961914 2.79663086 C47.41130567 7.5221424 60.58261589 21.67874764 73.08984375 37.80078125 C75.10688582 40.24120245 77.27621103 42.25671824 79.625 44.375 C95.26257435 59.73919018 98.09223143 85.53891159 98.32992554 106.33093262 C98.35468747 109.70963731 98.35521284 113.08801788 98.35302734 116.46679688 C98.35902786 118.34465294 98.36583684 120.22250656 98.37338257 122.10035706 C98.39088785 127.15198914 98.39573114 132.20355329 98.39701414 137.25521278 C98.39844433 140.42136448 98.40273003 143.58749936 98.40800858 146.75364685 C98.42645263 157.82714926 98.43468565 168.90060383 98.43310547 179.97412109 C98.43190332 190.25342592 98.45303472 200.53252105 98.4845928 210.81177282 C98.51083024 219.67767484 98.52146975 228.54350861 98.52019465 237.4094491 C98.51968752 242.68705817 98.52523288 247.96448022 98.54655075 253.24205017 C98.56606153 258.20648084 98.56597073 263.17054834 98.55151749 268.1349926 C98.54944463 269.94403051 98.55403801 271.75309197 98.5662384 273.56208992 C98.65883006 288.25608615 96.95220252 301.93630548 90.0625 315.1875 C89.59328125 316.16847656 89.1240625 317.14945313 88.640625 318.16015625 C84.2235219 326.98384554 78.70396825 333.99643866 72.0625 341.1875 C71.59183105 341.70731445 71.12116211 342.22712891 70.63623047 342.76269531 C53.93242598 361.06744843 31.19679994 373.49974361 6.2578125 375.0625 C-24.71993022 376.27434324 -54.77147301 372.68953116 -78.421875 350.8984375 C-83.19766692 346.23482861 -87.6328752 341.28531653 -91.9375 336.1875 C-92.75605469 335.22328125 -93.57460938 334.2590625 -94.41796875 333.265625 C-104.30397103 321.56083298 -111.10931056 312.61001389 -111.06448364 296.73925781 C-111.06682363 295.46641449 -111.06682363 295.46641449 -111.06921089 294.16785717 C-111.07319826 291.32542876 -111.07003988 288.4830538 -111.06689453 285.640625 C-111.06824965 283.60189279 -111.07003021 281.56316082 -111.07220459 279.52442932 C-111.076768 273.98476691 -111.07499322 268.4451231 -111.0718255 262.90546036 C-111.06929354 257.10193074 -111.07164204 251.29840272 -111.07321167 245.49487305 C-111.07503207 235.73990595 -111.07263164 225.98494642 -111.06787109 216.22998047 C-111.06244092 204.97333479 -111.06418258 193.71670726 -111.0696975 182.46006203 C-111.07424688 172.78510191 -111.07486989 163.11014723 -111.07225883 153.43518639 C-111.07070452 147.66182534 -111.0704788 141.8884728 -111.07379532 136.1151123 C-111.07670012 130.67817786 -111.07465067 125.2412666 -111.06890106 119.80433464 C-111.06758687 117.81667049 -111.06794459 115.82900437 -111.07016373 113.84134102 C-111.08056567 103.57130318 -110.98274078 93.41446054 -109.9375 83.1875 C-109.8662044 82.48115921 -109.79490879 81.77481842 -109.72145271 81.04707336 C-108.68809857 72.22401526 -106.07633906 64.34364953 -102.625 56.1875 C-102.25826172 55.31544922 -101.89152344 54.44339844 -101.51367188 53.54492188 C-97.6304314 44.77566306 -92.76772848 38.26803571 -85.0625 32.5625 C-84.44898682 32.09521484 -83.83547363 31.62792969 -83.20336914 31.14648438 C-81.99644122 30.22928932 -80.78604302 29.31663802 -79.57177734 28.40917969 C-78.18140742 27.36982936 -76.80234025 26.3153866 -75.42578125 25.2578125 C-69.66397366 20.84591412 -63.60282025 17.42945708 -57.125 14.1875 C-56.45146484 13.84460937 -55.77792969 13.50171875 -55.08398438 13.1484375 C-43.19623688 7.1875 -43.19623688 7.1875 -37.9375 7.1875 C-37.9375 6.5275 -37.9375 5.8675 -37.9375 5.1875 C-35.64838306 4.53128648 -33.35682193 3.88755677 -31.0625 3.25 C-30.11503906 2.97639648 -30.11503906 2.97639648 -29.1484375 2.69726562 C-19.57186187 0.06370733 -9.87534882 0.00575151 0 0 Z " fill="#88460E" transform="translate(1065.9375,1206.8125)"/>
<path d="M0 0 C3.18557346 3.51323244 4.09169838 7.36980495 5.125 11.875 C5.29386719 12.56980469 5.46273438 13.26460937 5.63671875 13.98046875 C7.23563731 20.6657109 8.14809047 27.03853317 8.11352539 33.93310547 C8.11367142 34.7045137 8.11381744 35.47592194 8.1139679 36.27070618 C8.11327508 38.80289591 8.10551241 41.33501072 8.09765625 43.8671875 C8.09578983 45.6298112 8.09436698 47.39243541 8.09336853 49.15505981 C8.08956103 53.78118334 8.07974589 58.40727518 8.06866455 63.03338623 C8.05841238 67.75923229 8.05386277 72.48508351 8.04882812 77.2109375 C8.03812198 86.47397221 8.02106686 95.73698346 8 105 C7.67 105 7.34 105 7 105 C6.67 118.86 6.34 132.72 6 147 C5.67 147 5.34 147 5 147 C5.00184359 146.42206947 5.00368717 145.84413895 5.00558662 145.24869537 C5.0499677 131.11467194 5.08295404 116.98065909 5.10362434 102.84658051 C5.11388885 96.01113871 5.12785551 89.17574374 5.15087891 82.34033203 C5.17312254 75.73321141 5.1845978 69.12612633 5.18975449 62.51896667 C5.19342538 60.00904072 5.20059309 57.49911715 5.21146011 54.98921204 C5.28192679 38.02597966 4.77481843 22.1016351 0.5859375 5.57421875 C0 3 0 3 0 0 Z " fill="#AD5812" transform="translate(1158,1272)"/>
<path d="M0 0 C3.18557346 3.51323244 4.09169838 7.36980495 5.125 11.875 C5.29386719 12.56980469 5.46273438 13.26460937 5.63671875 13.98046875 C7.44830808 21.55490917 8.13468762 28.58984317 8.0625 36.375 C8.05798828 37.30183594 8.05347656 38.22867187 8.04882812 39.18359375 C8.03711574 41.45579709 8.02071372 43.72786388 8 46 C7.67 46 7.34 46 7 46 C6.95101563 45.34515625 6.90203125 44.6903125 6.8515625 44.015625 C5.90192195 32.42346102 3.67946995 21.14015081 1.32104492 9.76586914 C1.065448 8.51858032 1.065448 8.51858032 0.8046875 7.24609375 C0.64983887 6.50029053 0.49499023 5.7544873 0.33544922 4.98608398 C0 3 0 3 0 0 Z " fill="#B95F13" transform="translate(1158,1272)"/>
<path d="M0 0 C-2.64738916 1.4606285 -3.89448334 2 -7 2 C-7 2.66 -7 3.32 -7 4 C-8.54107422 4.54527344 -8.54107422 4.54527344 -10.11328125 5.1015625 C-18.5061813 8.12657969 -26.26401196 11.50988107 -34 16 C-35.32786939 16.67748439 -36.65936874 17.34813342 -38 18 C-34.52849917 13.38448185 -31.18733564 10.50156705 -26 7.875 C-25.34789551 7.53662109 -24.69579102 7.19824219 -24.02392578 6.84960938 C-16.54918494 3.09142047 -8.49288126 -0.37331346 0 0 Z " fill="#BB6113" transform="translate(1035,1210)"/>
</svg>
