<svg width="25" height="23" viewBox="0 0 25 23" fill="none" xmlns="http://www.w3.org/2000/svg">
<path d="M25 7.36267C25 3.70597 21.9122 0.741699 18.1039 0.741699C15.7919 0.741699 13.7517 1.83737 12.5 3.51207C11.2483 1.83737 9.20814 0.741699 6.89684 0.741699C3.08778 0.741699 0 3.7053 0 7.36267C0 7.88064 0.0684932 8.38252 0.18591 8.86627C1.14342 14.5781 7.7586 20.6039 12.5 22.2585C17.2407 20.6039 23.8566 14.5781 24.8127 8.86694C24.9315 8.38319 25 7.88131 25 7.36267Z" fill="#F4ABBA"/>
<path d="M21.8813 8.39535C21.8813 5.65048 19.5645 3.42627 16.7059 3.42627C14.9712 3.42627 13.4399 4.24819 12.4999 5.50555C11.5605 4.24819 10.0292 3.42627 8.29453 3.42627C5.43599 3.42627 3.11841 5.65048 3.11841 8.39535C3.11841 8.78383 3.17013 9.16091 3.25749 9.52322C3.97667 13.8099 8.94103 18.3335 12.4999 19.5748C16.058 18.3328 21.0231 13.8099 21.7416 9.52389C21.8303 9.16091 21.8813 8.78383 21.8813 8.39535Z" fill="#EA596E"/>
<path d="M18.924 9.37427C18.924 7.49493 17.3374 5.97119 15.3805 5.97119C14.1923 5.97119 13.144 6.53412 12.5003 7.39563C11.8573 6.53412 10.8082 5.97119 9.62006 5.97119C7.66242 5.97119 6.0752 7.49493 6.0752 9.37427C6.0752 9.64064 6.11014 9.89828 6.17025 10.1465C6.66298 13.0826 10.0625 16.1797 12.4996 17.0298C14.9353 16.1791 18.3369 13.082 18.8282 10.1465C18.8897 9.89828 18.924 9.63996 18.924 9.37427Z" fill="#DD2E44"/>
</svg>
