<svg width="54" height="54" viewBox="0 0 54 54" fill="none" xmlns="http://www.w3.org/2000/svg">
<path d="M54 27C54 12.0884 41.9116 0 27 0C12.0884 0 0 12.0884 0 27C0 39.6619 8.71776 50.287 20.4779 53.2051V35.2512H14.9105V27H20.4779V23.4446C20.4779 14.2549 24.637 9.9954 33.6593 9.9954C35.37 9.9954 38.3216 10.3313 39.5291 10.6661V18.1451C38.8919 18.0781 37.7849 18.0446 36.41 18.0446C31.9831 18.0446 30.2724 19.7219 30.2724 24.0818V27H39.0917L37.5764 35.2512H30.2724V53.8024C43.6417 52.1878 54.0011 40.8046 54.0011 27H54Z" fill="#4E0113"/>
</svg>
