<svg width="25" height="25" viewBox="0 0 25 25" fill="none" xmlns="http://www.w3.org/2000/svg">
<g clip-path="url(#clip0_500_258)">
<path d="M23.5 11.4995H1.5C0.947715 11.4995 0.5 11.9472 0.5 12.4995C0.5 13.0518 0.947715 13.4995 1.5 13.4995H23.5C24.0523 13.4995 24.5 13.0518 24.5 12.4995C24.5 11.9472 24.0523 11.4995 23.5 11.4995Z" fill="#F3F4F0"/>
<path d="M23.5 4.50049H1.5C0.947715 4.50049 0.5 4.9482 0.5 5.50049C0.5 6.05277 0.947715 6.50048 1.5 6.50048H23.5C24.0523 6.50048 24.5 6.05277 24.5 5.50049C24.5 4.9482 24.0523 4.50049 23.5 4.50049Z" fill="#F3F4F0"/>
<path d="M23.5 18.5H1.5C0.947715 18.5 0.5 18.9477 0.5 19.5C0.5 20.0523 0.947715 20.5 1.5 20.5H23.5C24.0523 20.5 24.5 20.0523 24.5 19.5C24.5 18.9477 24.0523 18.5 23.5 18.5Z" fill="#F3F4F0"/>
</g>
<defs>
<clipPath id="clip0_500_258">
<rect width="24" height="24" fill="white" transform="translate(0.5 0.5)"/>
</clipPath>
</defs>
</svg>
