<svg width="54" height="54" viewBox="0 0 54 54" fill="none" xmlns="http://www.w3.org/2000/svg">
<circle cx="27" cy="27" r="27" fill="#F3F4F0"/>
<g clip-path="url(#clip0_290_319)">
<path d="M27 12.7414C31.8094 12.7414 32.3789 12.7625 34.2703 12.8469C36.0281 12.9242 36.9773 13.2195 37.6102 13.4656C38.4469 13.7891 39.0516 14.1828 39.6773 14.8086C40.3102 15.4414 40.6969 16.0391 41.0203 16.8758C41.2664 17.5086 41.5617 18.4648 41.6391 20.2156C41.7234 22.1141 41.7445 22.6836 41.7445 27.4859C41.7445 32.2953 41.7234 32.8648 41.6391 34.7563C41.5617 36.5141 41.2664 37.4633 41.0203 38.0961C40.6969 38.9328 40.3031 39.5375 39.6773 40.1633C39.0445 40.7961 38.4469 41.1828 37.6102 41.5062C36.9773 41.7523 36.0211 42.0477 34.2703 42.125C32.3719 42.2094 31.8023 42.2305 27 42.2305C22.1906 42.2305 21.6211 42.2094 19.7297 42.125C17.9719 42.0477 17.0227 41.7523 16.3898 41.5062C15.5531 41.1828 14.9484 40.7891 14.3227 40.1633C13.6898 39.5305 13.3031 38.9328 12.9797 38.0961C12.7336 37.4633 12.4383 36.507 12.3609 34.7563C12.2766 32.8578 12.2555 32.2883 12.2555 27.4859C12.2555 22.6766 12.2766 22.107 12.3609 20.2156C12.4383 18.4578 12.7336 17.5086 12.9797 16.8758C13.3031 16.0391 13.6969 15.4344 14.3227 14.8086C14.9555 14.1758 15.5531 13.7891 16.3898 13.4656C17.0227 13.2195 17.9789 12.9242 19.7297 12.8469C21.6211 12.7625 22.1906 12.7414 27 12.7414ZM27 9.5C22.1133 9.5 21.5016 9.52109 19.582 9.60547C17.6695 9.68984 16.3547 9.99922 15.2156 10.4422C14.0273 10.9062 13.0219 11.518 12.0234 12.5234C11.018 13.5219 10.4062 14.5273 9.94219 15.7086C9.49922 16.8547 9.18984 18.1625 9.10547 20.075C9.02109 22.0016 9 22.6133 9 27.5C9 32.3867 9.02109 32.9984 9.10547 34.918C9.18984 36.8305 9.49922 38.1453 9.94219 39.2844C10.4062 40.4727 11.018 41.4781 12.0234 42.4766C13.0219 43.475 14.0273 44.0937 15.2086 44.5508C16.3547 44.9937 17.6625 45.3031 19.575 45.3875C21.4945 45.4719 22.1062 45.493 26.993 45.493C31.8797 45.493 32.4914 45.4719 34.4109 45.3875C36.3234 45.3031 37.6383 44.9937 38.7773 44.5508C39.9586 44.0937 40.9641 43.475 41.9625 42.4766C42.9609 41.4781 43.5797 40.4727 44.0367 39.2914C44.4797 38.1453 44.7891 36.8375 44.8734 34.925C44.9578 33.0055 44.9789 32.3937 44.9789 27.507C44.9789 22.6203 44.9578 22.0086 44.8734 20.0891C44.7891 18.1766 44.4797 16.8617 44.0367 15.7227C43.5938 14.5273 42.982 13.5219 41.9766 12.5234C40.9781 11.525 39.9727 10.9062 38.7914 10.4492C37.6453 10.0062 36.3375 9.69687 34.425 9.6125C32.4984 9.52109 31.8867 9.5 27 9.5Z" fill="#4E0113"/>
<path d="M27 18.2539C21.8953 18.2539 17.7539 22.3953 17.7539 27.5C17.7539 32.6047 21.8953 36.7461 27 36.7461C32.1047 36.7461 36.2461 32.6047 36.2461 27.5C36.2461 22.3953 32.1047 18.2539 27 18.2539ZM27 33.4977C23.6883 33.4977 21.0023 30.8117 21.0023 27.5C21.0023 24.1883 23.6883 21.5023 27 21.5023C30.3117 21.5023 32.9977 24.1883 32.9977 27.5C32.9977 30.8117 30.3117 33.4977 27 33.4977Z" fill="#4E0113"/>
<path d="M38.7703 17.8881C38.7703 19.0834 37.8 20.0467 36.6117 20.0467C35.4164 20.0467 34.4531 19.0764 34.4531 17.8881C34.4531 16.6928 35.4234 15.7295 36.6117 15.7295C37.8 15.7295 38.7703 16.6998 38.7703 17.8881Z" fill="#4E0113"/>
</g>
<defs>
<clipPath id="clip0_290_319">
<rect width="36" height="36" fill="white" transform="translate(9 9.5)"/>
</clipPath>
</defs>
</svg>
