<svg width="21" height="21" viewBox="0 0 21 21" fill="none" xmlns="http://www.w3.org/2000/svg">
<path d="M13.4747 10.4917L20.3854 3.58103C21.2049 2.76221 21.2049 1.43363 20.3854 0.614115C19.5658 -0.204705 18.2387 -0.204705 17.4192 0.614115L10.5085 7.52479L3.59781 0.614814C2.77899 -0.204705 1.45042 -0.204705 0.630897 0.614814C-0.187923 1.43363 -0.187923 2.76221 0.630897 3.58173L7.54157 10.4917L0.614115 17.4192C-0.204705 18.238 -0.204705 19.5665 0.614115 20.3854C1.02318 20.7951 1.5609 21 2.09722 21C2.63354 21 3.17127 20.7951 3.58103 20.3854L10.5078 13.4586L17.4178 20.3686C17.8275 20.7783 18.3645 20.9832 18.9009 20.9832C19.4372 20.9832 19.9742 20.7783 20.384 20.3686C21.2035 19.5498 21.2035 18.2212 20.384 17.4024L13.4747 10.4917Z" fill="#31373D"/>
</svg>
