<svg width="48" height="48" viewBox="0 0 48 48" fill="none" xmlns="http://www.w3.org/2000/svg">
<g clip-path="url(#clip0_268_445)">
<path d="M25.9997 2.00014C25.9997 1.46971 26.2104 0.961001 26.5855 0.585929C26.9606 0.210856 27.4693 0.000142178 27.9997 0.000142178C33.3022 0.00596537 38.3859 2.11497 42.1354 5.86444C45.8848 9.6139 47.9938 14.6976 47.9997 20.0001C47.9997 20.5306 47.789 21.0393 47.4139 21.4144C47.0388 21.7894 46.5301 22.0001 45.9997 22.0001C45.4692 22.0001 44.9605 21.7894 44.5855 21.4144C44.2104 21.0393 43.9997 20.5306 43.9997 20.0001C43.9949 15.7581 42.3077 11.6912 39.3081 8.6917C36.3086 5.69215 32.2417 4.00491 27.9997 4.00014C27.4693 4.00014 26.9606 3.78943 26.5855 3.41436C26.2104 3.03928 25.9997 2.53058 25.9997 2.00014ZM27.9997 12.0001C30.1214 12.0001 32.1562 12.843 33.6565 14.3433C35.1568 15.8436 35.9997 17.8784 35.9997 20.0001C35.9997 20.5306 36.2104 21.0393 36.5855 21.4144C36.9605 21.7894 37.4692 22.0001 37.9997 22.0001C38.5301 22.0001 39.0388 21.7894 39.4139 21.4144C39.789 21.0393 39.9997 20.5306 39.9997 20.0001C39.9965 16.8185 38.7312 13.7681 36.4815 11.5184C34.2317 9.26862 31.1813 8.00332 27.9997 8.00014C27.4693 8.00014 26.9606 8.21086 26.5855 8.58593C26.2104 8.961 25.9997 9.46971 25.9997 10.0001C25.9997 10.5306 26.2104 11.0393 26.5855 11.4144C26.9606 11.7894 27.4693 12.0001 27.9997 12.0001ZM46.1857 33.4781C47.3447 34.6404 47.9956 36.2148 47.9956 37.8561C47.9956 39.4975 47.3447 41.0719 46.1857 42.2341L44.3657 44.3321C27.9857 60.0141 -11.8743 20.1641 3.56572 3.73214L5.86572 1.73214C7.02926 0.605497 8.58958 -0.0177597 10.2091 -0.00278814C11.8287 0.0121834 13.3772 0.664179 14.5197 1.81214C14.5817 1.87414 18.2877 6.68814 18.2877 6.68814C19.3874 7.8434 19.9995 9.378 19.9969 10.9729C19.9943 12.5679 19.3771 14.1005 18.2737 15.2521L15.9577 18.1641C17.2394 21.2784 19.1238 24.1086 21.5027 26.4923C23.8816 28.876 26.7081 30.7662 29.8197 32.0541L32.7497 29.7241C33.9015 28.6216 35.4338 28.0051 37.0283 28.0029C38.6227 28.0007 40.1568 28.6128 41.3117 29.7121C41.3117 29.7121 46.1237 33.4161 46.1857 33.4781ZM43.4337 36.3861C43.4337 36.3861 38.6477 32.7041 38.5857 32.6421C38.1736 32.2336 37.6169 32.0044 37.0367 32.0044C36.4564 32.0044 35.8997 32.2336 35.4877 32.6421C35.4337 32.6981 31.3997 35.9121 31.3997 35.9121C31.1278 36.1285 30.8043 36.2704 30.461 36.3237C30.1176 36.377 29.7663 36.3399 29.4417 36.2161C25.4106 34.7153 21.7492 32.3656 18.7054 29.3263C15.6616 26.287 13.3065 22.629 11.7997 18.6001C11.6661 18.2711 11.6226 17.9123 11.6735 17.5608C11.7245 17.2093 11.8681 16.8777 12.0897 16.6001C12.0897 16.6001 15.3037 12.5641 15.3577 12.5121C15.7662 12.1001 15.9955 11.5434 15.9955 10.9631C15.9955 10.3829 15.7662 9.82617 15.3577 9.41414C15.2957 9.35414 11.6137 4.56414 11.6137 4.56414C11.1955 4.18916 10.6497 3.98833 10.0882 4.00284C9.5267 4.01734 8.992 4.24607 8.59372 4.64214L6.29372 6.64214C-4.99027 20.2101 29.5517 52.8361 41.4417 41.6001L43.2637 39.5001C43.6906 39.1047 43.9471 38.5587 43.9788 37.9775C44.0105 37.3964 43.815 36.8258 43.4337 36.3861Z" fill="#F3F4F0"/>
</g>
<defs>
<clipPath id="clip0_268_445">
<rect width="48" height="48" fill="white"/>
</clipPath>
</defs>
</svg>
