<svg width="48" height="26" viewBox="0 0 48 26" fill="none" xmlns="http://www.w3.org/2000/svg">
<path d="M47.0031 1.71864C46.6844 1.39732 46.3053 1.14228 45.8875 0.968238C45.4697 0.794194 45.0217 0.70459 44.5691 0.70459C44.1165 0.70459 43.6685 0.794194 43.2507 0.968238C42.8329 1.14228 42.4538 1.39732 42.1351 1.71864L26.434 17.4197C26.1153 17.741 25.7362 17.996 25.3184 18.1701C24.9006 18.3441 24.4526 18.4337 24 18.4337C23.5474 18.4337 23.0994 18.3441 22.6816 18.1701C22.2638 17.996 21.8847 17.741 21.566 17.4197L5.86491 1.71864C5.54622 1.39732 5.16706 1.14228 4.7493 0.968238C4.33155 0.794194 3.88346 0.70459 3.4309 0.70459C2.97834 0.70459 2.53026 0.794194 2.1125 0.968238C1.69475 1.14228 1.31558 1.39732 0.99689 1.71864C0.358387 2.36095 0 3.22983 0 4.1355C0 5.04118 0.358387 5.91006 0.99689 6.55237L16.7323 22.2877C18.6606 24.2136 21.2746 25.2954 24 25.2954C26.7254 25.2954 29.3394 24.2136 31.2677 22.2877L47.0031 6.55237C47.6416 5.91006 48 5.04118 48 4.1355C48 3.22983 47.6416 2.36095 47.0031 1.71864Z" fill="#F3F4F0"/>
</svg>
